<?xml version="1.0" encoding="UTF-8"?>
<svg id="Layer_2" data-name="Layer 2" xmlns="http://www.w3.org/2000/svg" viewBox="0 0 437.88 585.33">
  <defs>
    <style>
      .cls-1 {
        fill: #f29254;
      }

      .cls-1, .cls-2, .cls-3, .cls-4 {
        stroke-width: 0px;
      }

      .cls-2 {
        fill: #f2bb57;
      }

      .cls-5 {
        fill: none;
        stroke: #be2132;
        stroke-linecap: round;
        stroke-linejoin: round;
        stroke-width: 3px;
      }

      .cls-3 {
        fill: #f9deaf;
      }

      .cls-4 {
        fill: #be2132;
      }
    </style>
  </defs>
  <g id="Layer_3" data-name="Layer 3">
    <path class="cls-2" d="M431.16,288.28c.75-1.86,1.17-3.86,1.15-5.94.9-1.89,1.35-3.9,1.32-6.04,1.07-2.26,1.64-4.75,1.52-7.35-.08-1.81-.41-3.57-.94-5.23.05-.31.1-.61.15-.92.46-2.71.43-5.52-.08-8.22,1.26-13.22,2.06-26.47,2.36-39.75.06-2.77-.66-5.49-1.92-7.96.41-5.62.45-11.28.34-16.96-.07-3.42-1.17-6.78-3.01-9.67-.15-2.72-.33-5.43-.59-8.15-.26-2.72-1.02-5.4-2.22-7.85-.4-3.55-.62-7.11-.19-10.5.41-3.25-1.22-7.31-3.3-10.32-.76-5.68-1.64-11.32-2.88-16.92-.67-3.03-2.34-5.73-4.58-7.89-.2-1.03-.51-2.04-.95-3-.36-1.47-.88-2.88-1.55-4.19-.46-2.25-1.29-4.37-2.45-6.27-.47-1.5-1.1-2.92-1.89-4.24.13-.91.19-1.85.14-2.79-.27-6.06-3.27-11.54-7.91-14.82-1.02-3.05-2.63-5.89-4.8-8.13-.17-5.6-4.15-10.85-9.2-13.78-1.86-2.78-4.09-5.33-6.45-7.83-1.29-1.37-2.64-2.67-4.09-3.87-.26-.2-.52-.4-.77-.6-.61-.47-1.14-.88-1.59-1.23-.56-.71-1.49-1.29-2.12-1.94-1.16-1.21-2.51-2.21-3.98-3-8.33-7.13-17.56-13.26-27.42-18.01-2.16-1.04-4.4-1.72-6.63-2.03-4.22-2.1-8.58-3.91-13.1-5.36-1.32-.42-2.68-.63-4.05-.67-2.74-.87-5.51-1.54-8.32-2.1-2.43-1.41-5.16-2.46-7.89-3.05-3.13-.68-6.43-.56-9.52.26-.99-.18-2.01-.29-3.06-.29h-7.85c-.39,0-.78.02-1.17.05-1.3-.31-2.66-.48-4.07-.48-2.06,0-4.09.42-6.02,1.13-1.54-.45-3.18-.7-4.89-.7-1.39,0-2.77.21-4.12.55-2.37-1.21-5.05-1.92-7.97-1.92-.7,0-1.39.06-2.08.15-1.56-1.1-3.31-2.05-5.24-2.78-9.22-3.48-20.21-3.7-29.99-4.6-9.12-.84-18.3-1.26-27.44-.45-7.19.64-14.01,1.93-20.55,3.86-1.09.11-2.18.32-3.28.68-11.25,3.68-22.22,8.08-33.02,12.91-2.38,1.06-4.28,2.85-5.73,5.02-7.53,4.25-14.18,9.41-19.69,16.79-6.06,4.84-11.78,10.11-17.19,15.81-1.19,1.25-2.18,2.68-2.97,4.21-3.12,1.43-5.82,3.77-7.62,7.05-2.93,5.36-6.07,10.6-9.43,15.71-.91,1.39-1.55,2.93-1.95,4.53-.95,1.17-1.77,2.45-2.39,3.82-.07.1-.14.19-.2.29-.14.22-.28.43-.42.65-.26.41-.48.83-.69,1.26-.58.77-1.11,1.53-1.56,2.12-.16.21-.3.42-.42.64-1.32,2.07-2.03,4.3-2.14,6.69-.06.26-.1.51-.15.77-1.02,1.79-1.96,3.67-2.82,5.7-.45,1.08-.73,2.21-.86,3.35-1.09,2.98-1.97,6.06-2.9,9.07-1.74,5.69-3.76,11.39-4.69,17.28-.93,5.84-.15,11.51-2.72,16.3-1.65,3.06-2.04,6.57-1.26,9.76-1.23,2.02-1.98,4.3-1.98,6.74,0,2.03.58,4.31,1.61,6.27-.38,2.11-.29,4.31.24,6.39-.29,1.57-.28,3.23.08,4.9-.01.23,0,.46-.03.69-.05.73-.21,1.51-.26,2.25-.03.18-.06.37-.09.55-.15.89-.33,1.77-.51,2.66-.63,3.09-.24,6.41,1.06,9.24-.56,1.17-.86,2.41-.92,3.71-.39,1.73-.31,3.46.23,5.18.18.76.45,1.47.78,2.14-.88,16.15,1.71,32.16,2.79,48.24-.17.85-.29,1.71-.29,2.61v.33c-.03.73.04,1.43.16,2.12-.03.55-.04,1.1,0,1.66-1.45,3.38-1.55,7.39-.26,10.84-.48,1.41-.85,2.86-1.05,4.36-.25,1.86-.4,3.57-.24,5.25-.98,2.55-1.23,5.42-.59,8.25.3,1.33-.87,6.94-1.09,9.54-.35,4.21-.5,8.42-.51,12.64,0,1.61.25,3.04.68,4.34-1.73,9.98-2.36,20.08-3.11,30.19-.06.82-.01,1.63.12,2.41-.24.75-.5,1.5-.74,2.25-.86,2.65-.61,5.45.4,7.96-.32,1.09-.51,2.23-.55,3.4-.05,1.58-.16,3.16-.3,4.74-1.12,1.34-1.93,2.92-2.28,4.7-2.29,11.69-3.81,23.93-7.4,35.31-1.25,3.98-2.83,7.75-3.95,11.71-1.65,1.1-3,2.5-4.02,4.23-.06.11-.11.22-.17.33-.58.92-.98,1.89-1.24,2.89-2.68,2.05-5.24,4.24-7.59,6.68-1.71,1.77-2.94,4.04-3.49,6.45-.53.38-1.04.81-1.5,1.31-.29.27-.55.55-.8.83-8.55,2.23-8.3,16.02.79,17.54,0,0,0,0,.01.01.88.68,1.75,1.36,2.63,2.03.53.31,1.07.57,1.62.8,2.21,2.8,6.48,3.96,9.94,3.48.71-.1,1.46-.02,2.21.13,1.65,1.59,3.95,2.56,6.44,2.83.6.07,1.18.12,1.77.18,1.32.92,3,1.48,5.04,1.48.8,0,1.54-.09,2.22-.25.19.08.39.16.57.23.14.05.29.1.44.13.07.01.13.02.2.04.75.12,1.74.27,2.49.33.15.01.3.02.46.01.06,0,.12,0,.19,0,.38.17.78.32,1.2.44,3.13.85,6.34,1.32,9.56,1.64.76.08,1.6-.05,2.42-.31,1.12.54,2.44.86,3.97.86.76,0,1.47-.09,2.13-.24.11,0,.22,0,.33,0,1.31-.1,2.61-.21,3.92-.32.59.1,1.19.2,1.81.26,1.31.14,2.59-.17,3.77-.75.91-.08,1.83-.18,2.74-.27,1.35,1.02,3.11,1.64,5.27,1.64,1.29,0,2.43-.23,3.43-.63-.51,1.49-.79,3.1-1.21,4.88-.95,4.05-2.01,8.08-2.93,12.14-1.88,8.3-3.27,16.71-3.32,25.25-.02,2.97,1.75,4.8,3.93,5.48-.02.24-.03.47-.04.71-.54.56-1,1.25-1.33,2.08-1.52,3.78-.32,8.14-.59,12.13-.15,2.21-.69,4.35-.88,6.55-.19,2.31.18,4.53.21,6.84,0,.53.09,1.02.2,1.48-.29.48-.5,1.01-.59,1.6-.66,4.48-1.07,8.93-1.04,13.45.03,5.17,5.43,6.88,8.98,5.12,9.11.99,18.19,1.07,27.33.23,7.63-.7,7.7-12.71,0-12-.57.05-1.14.09-1.71.14,1.59-2.05,2.59-4.72,2.62-8.03.04-5.52,2.96-11.62,3.58-17.45.63-5.98-.18-11.86-.54-17.83-.69-11.17,3.52-20.03,8.8-29.92,3.43-6.43,1.62-14.69-4.84-18.47-.47-.28-.97-.51-1.47-.72.06-.17.13-.33.19-.51,2.13-6.74,2.63-13.75,3.18-20.75.28-.13.56-.27.84-.44,3.84-2.24,6.15-8.39,3.23-12.31-2.73-3.66-4.75-7.61-6.35-11.74,2.26,3.25,4.28,6.67,5.94,10.37,4.22,9.38,19.29,2.7,16.45-6.94-1.93-6.54-4.39-12.9-7.31-19.04,4.3,3.01,8.6,6,13.23,8.55.7.39,1.4.65,2.09.85.07.13.15.25.21.38,0,.01,0,.02-.01.03-1.76,3.13-3.41,6.33-4.94,9.59-2.51,5.37.41,11.6,5.21,13.25,1.74,4.75,4.43,9.29,7.8,13.53,4.29,5.4,9.9,7.97,16.01,9.42-.19,6.14.25,12.56,5.35,16.49,2.81,2.16,5.7,2.84,8.53,2.59-7.78,15.34-14.79,31.09-20.75,47.39-3.06,8.34,9.29,15.45,15.04,8.76,13.31-15.51,25.03-32.17,35.09-49.73,2.95,4.27,9.28,6.27,13.7,1.55,2-2.14,4-4.29,5.99-6.44,1.27,3.53,4.2,6.19,8.36,6.19s8.53-3.39,8.98-7.64c10.01-7.69,19.2-16.16,27.79-25.17,1.61,1.13,3.42,1.99,5.45,2.45,4.11.94,8.02.57,11.43-.82-1.91,19.21.5,38.7,7.46,56.86,1.72,4.48,6.42,6.88,10.51,5.86.15,6.8,1.8,13.11,4.73,19.22.68,1.42,1.82,2.47,3.17,3.16-.2,1.82-.41,3.63-.63,5.44-.14,1.19.09,2.34.57,3.38-.13.18-.26.38-.36.62-.11.24-.2.48-.29.72,0,0,0,0,0,0,0,.01,0,.03,0,.04-1.07,2.71-1.43,5.54-1.08,8.27-.14,1.44-.26,2.88-.34,4.33,0,.09,0,.16.01.25-1.45-.41-3.14.13-3.6,2.01-.04.16-.08.32-.12.47-.43,1.75.88,3.97,2.89,3.8,1.02-.09,2.03-.06,3.04.01,1.03.98,2.79,1.34,4.1.38.65.05,1.3.09,1.96.1,2.51.02,4.95-.23,7.45-.12,1.37,1.24,3.14,2,5.28,1.9.95-.04,1.95-.27,2.9-.65.61.35,1.34.58,2.22.58,4.24,0,5.36-4.81,3.4-7.39.02-.34.01-.68-.03-1.04-.13-1.1-.22-2.19-.21-3.29,0-.3.15-2,.06-1.53.32-2.07.75-4.09.93-6.19.15-1.71-.44-3.38-1.46-4.79.36-2.41.73-4.82,1.13-7.22.47-2.81-.11-5.66-1.74-7.73.51-4.66,1.01-9.32,1.52-13.98.1-.95-.03-1.87-.33-2.74,4.66-3.05,5.15-9.26,3.09-14.84,0-.1,0-.2-.01-.31-.23-2.1-.27-4.42-.77-6.46,0-.04-.43-1.34-.82-2.35.13-2.17-.87-4.28-2.43-5.85-.14-.84-.26-1.69-.39-2.53,1.84.66,3.84,1.04,5.95,1.04.92,0,1.83-.1,2.73-.25.77-.05,1.53-.17,2.29-.32,1.64.51,3.39.79,5.23.79,3.19,0,6.33-.95,9.07-2.59.08-.02.15-.04.22-.06,1.28.3,2.62.47,4.02.47,1.77,0,3.53-.3,5.21-.84.79.11,1.59.18,2.42.18,5.93,0,11.68-3.29,15.03-8.16,3.99-.74,7.71-2.89,10.44-5.89,1.36-.58,2.73-1.15,4.09-1.73,2.7-1.6,4.86-3.75,6.46-6.46l.22-.44c.66-1.03,1.17-2.11,1.52-3.23.21-.08.4-.17.59-.27,7.52-.84,7.25-12.95-.84-12.95-.01,0-.03,0-.04,0-.12-.03-.23-.07-.36-.09-.53-1.13-1.21-2.18-2.04-3.14-.54-1.14-1.17-2.22-1.91-3.21-.05-.11-.1-.22-.16-.32-.36-1.11-.85-2.15-1.47-3.11.16-.99.23-2.01.18-3.05-.12-2.57-.73-5.04-1.75-7.28,0-.05,0-.09,0-.14-.11-2.43-.65-4.76-1.57-6.9.03-.65.06-1.3.12-1.95.08-.25.16-.5.23-.75.11-.76.22-1.53.34-2.29.18-.61.32-1.23.43-1.86.33-1.65.35-3.3.07-4.95-.04-.31-.1-.61-.16-.91-.09-1.56-.46-3.04-1.07-4.46,1.04-2.31,1.58-4.75,1.59-7.34.24-2.32.3-4.65.2-6.98-.05-1.12-.19-2.23-.4-3.31.56-2.31.69-4.62.35-6.93.03-.09.05-.18.08-.26,1.7-3.95,2.34-8.18,1.16-12.46-.16-.57-.36-1.15-.59-1.72.68-2.25.76-4.62.37-6.95.12-.43.23-.87.31-1.33,1.84-10.61,3.22-21.32,4.04-32.06.07-.9.04-1.79-.06-2.67,1-2.29,1.55-4.76,1.89-7.56.55-4.6.91-9.21,1.11-13.84.15-.83.27-1.67.33-2.54.21-3.29.5-6.56.84-9.83.47-1.6.7-3.28.62-5.01,0-.07-.02-.14-.02-.22.04-.3.07-.6.11-.89.05-.37.06-.76.06-1.16ZM188.72,284.95c-5.38-.68-10.75-1.41-16.05-2.57-7.52-1.63-14.16-4.32-20.13-8.33,5.98-8.28,12.1-16.47,18.37-24.53,2.54-2.06,5.86,1.79,9.02,2.17,1.11.13,2.22.22,3.33.34,2.45,2.08,5.33,3.37,8.45,3.35-1.49,9.8-2.49,19.67-3,29.57ZM281.2,284.49c-1.19.52-2.26,1.24-3.21,2.09-4.35-1-8.67-2.09-12.96-3.29-3.65-1.02-7.28-2.12-10.88-3.29-.05-.02-.11-.04-.19-.06-1.32-2.99-3.43-5.71-5.97-7.69,0-.36.03-.71.02-1.07-.22-5.33-.71-10.63-1.72-15.85.55.04,1.1.06,1.66.04,1.6-.21,3.19-.43,4.79-.64,2.75-.77,5.17-2.11,7.27-4,2.62-.46,5.13-1.53,7.33-3.05.08-.02.15-.05.22-.07,2.35,1.19,5.01,1.88,7.89,1.88.34,0,.67-.03,1-.05,1.21,5.04,2.82,10.08,4.46,15.26,1.82,5.73,2.94,11.53,4.15,17.4.03.19.05.34.07.47-1.27.69-2.56,1.34-3.91,1.94Z"/>
    <path class="cls-3" d="M173.26,249.03c-8.36,0-8.38,13,0,13s8.38-13,0-13Z"/>
    <path class="cls-3" d="M268.01,248.86c-8.36,0-8.38,13,0,13s8.38-13,0-13Z"/>
  </g>
  <g id="Layer_2-2" data-name="Layer 2">
    <path class="cls-1" d="M267.86,247.47c-12.22,0-22.12,9.9-22.12,22.12s9.9,22.12,22.12,22.12,22.12-9.9,22.12-22.12-9.9-22.12-22.12-22.12ZM267.86,258.92c-2.53,0-4.59-2.05-4.59-4.59s2.05-4.59,4.59-4.59,4.59,2.05,4.59,4.59-2.05,4.59-4.59,4.59Z"/>
    <path class="cls-1" d="M173.46,247.47c-12.22,0-22.12,9.9-22.12,22.12s9.9,22.12,22.12,22.12,22.12-9.9,22.12-22.12-9.9-22.12-22.12-22.12ZM173.46,258.92c-2.53,0-4.59-2.05-4.59-4.59s2.05-4.59,4.59-4.59,4.59,2.05,4.59,4.59-2.05,4.59-4.59,4.59Z"/>
    <path class="cls-5" d="M307.25,148.24c3.55,15.64,10.96,47.59,21.87,65.65,5.38,8.9,4.65,7.75,6.73,11.77,3.63,7,10.09,18.11,19.71,29.95,4.42,5.44,7.54,11.83,8.95,18.7l.02.12s10.86,39.88-.49,58.58c-.45.75-3.19,5.17-3.74,5.85-3.69,4.57-17.43,31.88-71.72,44.57,0,0-48.25,9.88-78.76,7.53-94.68-7.29-123.92-40.98-130.42-50.53-12.21-17.94-10.68-50.2-2.75-62.82,5.22-8.31,3.75-32.78,3.04-41.49-.15-1.79.78-3.5,2.38-4.32,8.62-4.45,36.99-23.39,66.99-90.29,34.03-75.86,81.98-56.76,87.11-54.35.29.14.62.15.92.05,4.4-1.52,38.46-10.7,63.42,41.4,3,6.25,5.2,12.85,6.73,19.61Z"/>
    <path class="cls-5" d="M74.27,230.94c15.35-5.19,52.64-53.14,80.38-111.58,27.74-58.44,82.63-33.57,82.63-33.57,0,0-26.75-30.05-64.52,1.38-34.21,28.47-41.55,63.55-56.73,87.93-4.5,7.23-14.16,20.12-17.38,23.69-12.14,13.46-45.12,36.37-34.36,29.83-2.39,1.45-.55.93,0,0,1.33-.66,9.97,2.33,9.98,2.33Z"/>
    <path class="cls-5" d="M79.89,234.46s-14.27-12.49-24.79.59c-10.53,13.08-6.89,29.91-6.89,29.91,0,0,3.71,17.61,23.4,27.49"/>
    <path class="cls-5" d="M236.43,87.21s1.02.66,4.47-6.03c0,0-20.71-18.54-55.73-12.84,0,0-17.12,2.75-32.86,26.17,0,0-23.16,37.32-34,63.81-2.73,6.67-6.36,12.92-10.81,18.59-9.17,11.7-25.19,29.99-41.37,38.21-24.79,12.59-20.66,30.28-19.48,45.64,1.15,14.93-4.57,113.41-8.71,126.23-.2.63-3.65,19.02-3.77,19.67-1.23,6.44-7.4,31.32-29.88,49.79-4.64,3.82-3.27,11.34,2.48,13.08.25.08.52.15.79.22,1.69.41,3.11,1.51,4.08,2.97,1.56,2.36,5.26,5.57,13.85,5.64,1.46.01,2.89.42,4.1,1.22,2.07,1.37,6.08,3.27,11.93,2.75,1.33-.12,2.67.12,3.89.68,2.29,1.05,6.93,2.45,14.33,1.43,1.19-.16,2.4-.05,3.52.36,1.85.68,5.5,1.45,11.23.32.89-.18,1.81-.24,2.71-.1,1.98.3,5.93.66,8.7-.62,3.83-1.77,12.76-41.01,54.22-65.81.12-.07.24-.14.37-.21,2.08-1.13,21.29-11.38,34.75-14.04,3.67-.73,6.3-3.94,6.21-7.68l-.22-8.93"/>
    <path class="cls-5" d="M240.9,81.19c.74-1.84,1.34-3.83,2.48-5.52,1.25-1.85,2.15-3.92,2.52-6.13.36-2.12,1.04-4.76,2.34-6.26.75-.87,1.22-1.93,1.29-3.08.12-1.95.66-5.16,2.54-9.16.56-1.19.89-2.48,1.01-3.79.19-2.15.81-5.81,2.81-9.62.62-1.18,1.01-2.47,1.09-3.8.13-2.17.61-5.73,2.27-8.63.98-1.71,1.55-3.61,1.58-5.58.03-2.36.53-5.62,2.61-8.3,0,0-38.78-7.38-79.35,1.71-31.86,7.14-58.57,24.86-76.05,52.44-1.14,1.8-9.19,14.34-10.3,16.12-15.25,24.35-37.14,38.51-43.34,43.88-4.18,3.61-7.96,32.58-9.36,39.75"/>
    <path class="cls-5" d="M181.37,69.45c35.24-17.39,63.55,3.37,63.55,3.37,0,0,60.63-2.44,77.16,73.51,16.53,75.95,42.89,112.15,51.55,121.99,8.66,9.84,9.05,11.81,6.69,15.35s-11.79,12.87-11.79,12.87"/>
    <path class="cls-5" d="M45.97,253.09c-2.22-22.15-1.01-35.55-1.01-35.55,12.06-6.44,31.09-23.2,38.39-30.27,1.23-1.19,11.74-11.86,15.74-16.11,9.09-9.66,21.1-33.64,26.66-45.29,4.01-8.41,8.66-16.5,14-24.14,10.57-15.1,28.12-35.77,49.66-44.41,35.81-14.36,58.82,5.96,58.82,5.96,0,0,29.38-5.17,53.58,23.58,0,0,26.72,31.73,32.47,58.95,5.65,26.74,18.79,59.8,22.75,69.46.72,1.76,1.5,3.45,2.37,5.14,4.7,9.13,21.55,41.84,24.16,46.9,4.62,8.95-3.25,16.36-3.25,16.36"/>
    <path class="cls-5" d="M44.71,233.5c-.71-10.45.05-21.65.4-27.7.16-2.8,1.21-5.47,3.04-7.59,4.51-5.2,13.04-10.21,22.33-18.5,11.89-10.62,31.42-32.03,42.3-52.83,12.49-23.88,8.42-31.11,41.32-64.37,43.84-44.32,98.97-15.25,98.97-15.25,0,0,61.53-7.64,80.91,48.99.58,1.7,1.16,3.39,1.83,5.06,3.38,8.44,14.82,38.09,17,57.93.86,7.8,1.89,15.58,3.51,23.26,1.75,8.3,4.18,18.12,7.18,25.97,6.49,17,23.32,42.5,20.07,58.86"/>
    <path class="cls-5" d="M44.66,218.06c-.78-6-1.6-28.91,1.23-35.86,2.86-7.03,31.43-14.31,51.85-56.57,20.53-42.5,42.11-68.87,42.11-68.87,48.4-51.16,117.13-22.92,117.13-22.92,0,0,63.77,4.66,87.87,57.79,1.33,2.92,3.71,7.6,5.24,10.42,4,7.42,12.65,34.85,12.74,64.73,0,3.09.13,6.16.5,9.23.8,6.49,2.56,17.88,5.92,27.01s13.26,45.28,14,52.9"/>
    <path class="cls-5" d="M50.45,135.66c4.46-23.95,15.84-64.88,75.26-109.59,59.42-44.71,137.71-14.73,137.71-14.73,0,0,98.35,7.82,124.33,75.53,18.43,48.03,22.39,117.25,23.14,153.42.3,14.27-.69,28.55-2.88,42.65-4.17,26.82-7.93,46.3-9.62,81.31-.34,7.13-.16,14.27.5,21.37,2.11,22.4,8.41,71.41,24.27,89.67,0,0-5.71,10.13-19.58,12.74-4.83.91-4.23-3.85-8.07-18.27-1.04-3.9-2.99-11.39-6.05-21.25-3.31-10.66-6.57-22.3-7.22-28.53-1.06-10.27-1.16-14.29-1.25-18.06-.02-.97-.31-7.69-.41-9.64-1.03-20.61.88-23.12,4.81-36.1,1.2-3.96,8.14-31.34,9.02-37.21,2.57-17,4.43-49.84-1.47-73.54-1.92-7.7-3.55-20.06-4.66-29.82-.78-6.88-1.12-13.82-.75-20.74.95-17.76-5.39-51.17-9.15-69.1-2.07-9.87-5.37-19.44-9.87-28.47-7.47-15.01-20.79-37.31-40.16-53.45-31.87-26.56-67.97-21.43-67.97-21.43,0,0-39.76-15.75-79.04,0-39.27,15.75-55.65,29.78-74.1,58.77-5.11,8.03-9.72,21.38-15.23,32.1-6.33,12.3-13.74,22.78-24.56,31.38-9.93,7.89-20.18,13.26-22.44,20.56-4.02,12.99-.8,43.24-.8,43.24"/>
    <path class="cls-5" d="M263.42,11.34s98.7-14.09,143.17,75.53c44.47,89.62,25.97,200.99,25.97,200.99,0,0-16.63,113.58-11.39,146,.3,1.83,2.47,11.55,3.03,13.32,1.56,5.01,4.86,10.2,9.54,11.85,6.69,2.36-10.58,16.26-10.58,16.26"/>
    <path class="cls-5" d="M54.82,278.44s.32,66.1-1.4,93.42c-.22,3.42-.6,6.81-1.15,10.19-1.07,6.59-3.26,20.12-4.96,30.85-2.45,15.43-19.85,46.79-24.53,50.77-2.66,2.26-11.1,6.29-11.14,9.05"/>
    <path class="cls-5" d="M62.98,286.93v90.13c0,4.24-.26,8.47-.77,12.68-2.01,16.52-7.38,60.06-9.1,67.04-3.74,15.15-5.44,17.72-14.51,25.62"/>
    <path class="cls-5" d="M75.55,333.29s-1.44,25.9-1.28,54.17c.22,38.66-10.08,95.03-21.27,97.27"/>
    <path class="cls-5" d="M93.52,354.96s5.1,58.29-1.28,84.89c-.49,2.05-.95,4.1-1.28,6.18-1.22,7.73-5.41,28.36-16.48,39.09"/>
    <path class="cls-5" d="M106.33,363.65s1.95,4.13,1.15,18.24c-.76,13.4-.73,16.23-.93,21.22-.36,9.42-1.57,16.91-2.48,21.64-5.19,26.91-6.74,34.68-11.43,46.91"/>
    <path class="cls-5" d="M121.2,371.21s4.2,24.38,0,43.66c-2.22,10.19-3.35,20.98-3.35,20.98"/>
    <path class="cls-5" d="M136.29,377.06s2.29,27.29.91,42.97"/>
    <path class="cls-5" d="M150.27,381.3s3.85,28.38,1.29,31.56"/>
    <path class="cls-5" d="M160.81,384.66s4.37,18.03,1.5,23.63"/>
    <path class="cls-5" d="M173.46,386.43s3.59,12.48,0,18.29"/>
    <path class="cls-5" d="M383.98,278.14s1.17,33.71-10.08,62.7c-7.92,20.41-9.44,42.28-10.42,56.09-.58,8.17-1.5,14.73-1.93,19.81-1.04,12.33-.99,31.67,2.66,43.31.95,3.04,1.94,6.06,2.68,9.16,1.98,8.26,6.19,22.78,11.73,25.39,7.82,3.69,24.4-2.51,24.96-6.57"/>
    <path class="cls-5" d="M348.57,353.42s-1.16,27.26-2.41,36.56c-.34,2.5-.63,4.8-.88,6.94-1.6,13.67-1.17,27.49,1.26,41.04,1.48,8.24,3.6,17.99,6.29,25.01,2.01,5.23,3.6,10.61,4.92,16.05,1.63,6.72,3.85,14.55,5.77,16.71,3.54,3.99,14.56,1.43,15.1-1.13"/>
    <path class="cls-5" d="M319.59,372.99s8.27,42.17,14.7,68.2c2.22,8.97,5.25,17.69,9.03,26.12,3.98,8.87,9.49,21.72,10.83,27.69.41,1.84,1.93,3.23,3.81,3.4,2.75.26,6,.02,5.56-2.67"/>
    <path class="cls-5" d="M301.18,421.9c-1.38-4.13-1.29-41.48-1.29-41.48"/>
    <path class="cls-5" d="M288.59,383.43s-4.53,21.74-2.17,28.63"/>
    <path class="cls-5" d="M277.17,386.43s-1.97,17.95-3.34,21.15"/>
    <path class="cls-5" d="M263.42,387.7s2.51,14.47-.07,17.03"/>
    <path class="cls-5" d="M310.26,429.75l3.79,57.91c.55,8.35,1.38,18.96,3.7,27.01,3.58,12.39,4.87,16.82,4.87,16.82l27.28-.98s5.58.39,9.71-4.92-9.25-41.74-16.29-58.28c-4.49-10.53-20.36-26.07-31.29-35.97-.61-.55-1.2-1.08-1.77-1.59-5.32-4.75-9.09-7.85-9.09-7.85-16.13-15.15-49.97-19.48-49.97-19.48-.59-2.75,0-13.14,0-13.14"/>
    <path class="cls-5" d="M85.9,484.39s-11.58,40.8-6.07,47.1,33.5,4.9,33.5,4.9c0,0-1.46-21.07,4.54-32.96,2.12-4.2,3.16-8.85,3.04-13.56-.39-15.94-.39-49.55,5.79-61.93"/>
    <polyline class="cls-5" points="79.82 531.49 79.82 583.24 107.68 583.24 110.08 536.49"/>
    <path class="cls-5" d="M354.96,529.37v54.47h-27.07s-1.33-49.55-3.44-52.4"/>
    <path class="cls-5" d="M107.68,583.24l220.21.59-220.21-.59Z"/>
    <path class="cls-5" d="M181.38,397.88s-.35,25.46,15.13,30.88c1.8.63,4.16,1.45,5.44,1.71,3.58.73,14.09,1.85,22.23,1.5,6.77-.29,13.14-3.14,17.81-8.05,4.96-5.21,8.81-13.36,8.96-25.01"/>
    <path class="cls-5" d="M156.25,410.77l2.78,52.64s20.95,14.76,58.88,14.61c37.93-.15,59.77-13.13,59.77-13.13l3.52-54.7"/>
    <path class="cls-5" d="M57.7,243.52s16.08,17.15,18.96,34.1"/>
    <path class="cls-5" d="M182.45,209.67s7.47-7.65,16.92-.08"/>
    <path class="cls-5" d="M237.28,209.67s7.47-7.65,16.92-.08"/>
    <path class="cls-5" d="M211.69,273.01s7.47-7.65,16.92-.08"/>
    <ellipse class="cls-4" cx="248.78" cy="244.82" rx="9.96" ry="18.95"/>
    <path class="cls-5" d="M208.74,325.33h21.08c1.61,0,2.72-1.64,2.09-3.12-1.91-4.49-7.69-12.52-12.05-12.52-5.39,0-10.48,8.37-12.8,12.91-.64,1.25.27,2.73,1.68,2.73Z"/>
    <path class="cls-5" d="M210.14,338.88s10.02,2.36,19.28,0"/>
    <ellipse class="cls-4" cx="192.41" cy="244.82" rx="9.96" ry="18.95"/>
    <path class="cls-4" d="M327.9,576.39c-.98-6.75-1.38-13.53-1.37-20.34,0-.95.15-1.75-.19-2.44.07-.41.24-.46.33-.87.28-1.35.37-3.04-.24-4.26.15-3.8-1.04-9.09-1.58-12.85,1.46-3.75-2.21-4.13-2.57-5.36-.13-.15-.33-.76-.48-.9.04-1.12-.38-2.3-.94-3.25-.29-2.2-1.12-3.8-1.76-5.93-.27-.9-.56-2.68-1.19-3.31-1.38-8-2.43-14.67-3.75-22.69.16-.84-.06-1.71-.25-2.54.21-.56.06-1.47.06-2.09v-.2c.03-.74.01-1.31-.32-1.95.02-.17-.07-.44-.07-.61v-.2c.03-.7.37-.66.07-1.27-.03-.39.15-.99.02-1.36.38-1.37.04-3.04-.55-4.32.15-.7.29-1.31.18-2.03.18-1.1-.02-2.26-.42-3.29,0-.11-.08-.43-.08-.54l.08-.25c0-.2-.03.04-.05-.15,0-.13.01-.28.02-.42l.1-.45c.02-.49-.15-.95-.29-1.4,0-.04-.11-.15-.11-.19,0-.08.33,0,.33-.08l-.3-.55c0-.2.14.09.12-.11,0-.13-.11-.9-.11-1.04l.12-.8c0-.16-.13-.54-.14-.7,0-.11-.19-.36-.18-.47l-.17-.46c.01-.39.13-.69.04-1.05.04-.28-.04-.63-.04-.92v-.2c.03-.67.32-.94.05-1.53l-.15-.57c.02-.66.22-.98-.04-1.56.19-.89-.14-1.92-.35-2.81.19-.82-.06-1.94-.22-2.77.3-.69.5-1.4.5-2.17v-.2c.03-.74-.13-1.44-.47-2.08-.16-.5.1-.99-.23-1.39.07-1.23-.36-2.39-.21-3.6.08-.63-.03-1.23-.24-1.79-.09-2.73-.23-5.47-.43-8.19,0,0-.01,0-.02,0-.03-.47-.08-.95-.18-1.44-.07-.34.06-.62-.06-.91.81-3.23-.85-5.32-3.32-6.28-.46-1.51-1.58-2.63-3.5-3.25-.39-.13-.63-.51-1-.67-.24-.28-.12-.84-.57-.9-.14-.49-.53-.7-1.06-.89-.05-.06-.07-.05-.13-.11-.07-.07-.02-.11-.08-.17-.16-.18-.2-.39-.42-.46-.1-.05-.5-.05-.61-.08-.12-.28-.49-.41-.75-.6l-.22-.06c0-.25-.18-.26-.29-.48-.07-.22-.2-.42-.37-.58-.16-.18-.36-.3-.58-.37-.21-.11-.45-.16-.69-.16-.16.02-.27-.24-.43-.22-.14.04-.25-.41-.37-.35-.49-.37-.94-.56-1.44-.9-1.14-.76-2.18-1.45-3.39-2.11-.93-.51-2.31-.49-2.74-1.52-.19-.45-.6-.77-1.11-.63-.23.06-.19-.43-.31-.2-.55-.43-.57-.45-1.47-.45-.03,0-.58-.05-.6-.05.05-.23-.39.02-.52-.17-.05-.06-.09-.12-.14-.18-.11-.11-.25-.19-.4-.23-.64-.26-1.28-.52-1.92-.78-.08-.01-.16-.02-.24-.03-.08.01-.16.02-.24.03-.19.05-.35.17-.47.32-.1.13.09.41.07.57q-.03.21-.14.43l.59,2.06c-.75,1.07-.61,2.44-.09,3.65-.16.36-.28.73-.36,1.13l-.37.48c-.49.84-.36,1.72-.36,2.7l-.07.52c-.03.74-.19,1.34.15,1.99.06.19.14.36.23.53-.27.47-.27,1.09-.03,1.57-.42,1.44-.49,3.07-.09,4.85-.05.04-.11.07-.16.12l-.23.3c-.14.23-.2.49-.2.76,0,.2.04.4.07.59-.13.24-.21.51-.18.8.1.77.17,1.53.26,2.3-.02.03-.04.05-.06.08-.14.23-.2.49-.2.76-.17,1.29-.21,2.58-.14,3.88,0,.14.03.27.07.4-.45,2.31-.58,4.67-.62,7.02-.02,1.56-.03,3.11-.04,4.67-.28.27-.46.63-.45,1.06.02,1.78-.08,3.56-.3,5.32-.01.11,0,.24.04.37-.53,1.86-.85,3.78-.92,5.72,0,0-.01,0-.02,0-.51.28-1.03.53-1.56.76-.33.13-.66.26-1,.38-.29.1-.53.27-.72.5-1.87.74-3.71,1.54-5.52,2.4-.02,0-.04,0-.06,0-.49.02-.97.12-1.42.29-.82.18-1.64.35-2.47.49-.25.04-.51.23-.7.44-1.94.48-3.88.97-5.81,1.49-1.39.37-2.77.76-4.15,1.15-1.18.34-2.48.6-3.44,1.4-6.12.94-12.27,1.71-18.44,2.29-.49.05-.85.28-1.09.6-4.2-.21-8.41-.18-12.61.15-.14-.05-.29-.08-.46-.08-2.25,0-4.49,0-6.74,0-.2,0-.39.04-.57.12-.18-.02-.37-.04-.57-.04-.1,0-.18.02-.28.03-.07-.01-.13-.02-.2-.04-.45-.14-.9-.16-1.35-.12-.38-.1-.77-.17-1.22-.17-.11,0-.21.03-.32.03-.41-.12-.82-.15-1.22-.12-.1-.01-.2-.03-.3-.04-.6-.19-1.2-.21-1.8-.08-.04,0-.08.02-.11.02-.18-.08-.35-.18-.55-.23-.16-.03-.33-.07-.49-.1-.34-.11-.68-.15-1.01-.15-.06-.02-.1-.05-.16-.07-.1-.03-.2-.06-.3-.1-.6-.19-1.2-.21-1.8-.08-.09,0-.17.03-.25.04-.26-.13-.52-.26-.81-.34-.3-.06-.59-.12-.89-.18-.44-.14-.88-.16-1.32-.12-.15-.06-.29-.14-.44-.19-.16-.03-.33-.07-.49-.1-.37-.12-.74-.15-1.12-.14-.03-.01-.06-.03-.09-.04-.02,0-.04-.01-.06-.02,0,0-.02,0-.03,0-.2-.03-.46-.06-.61-.08-.1-.01-.25-.03-.4-.05-.05-.02-.11-.04-.16-.05-.6-.19-1.2-.21-1.8-.08-.2,0-.39.06-.58.1-.52-.22-1.09-.38-1.78-.38-.02,0-.03,0-.05,0-.04-.01-.08-.04-.13-.05-.26-.06-.53-.12-.79-.18-.01,0-.03,0-.04,0-.15-.06-.29-.14-.45-.19-.13-.03-.26-.07-.39-.1-.15-.05-.3-.05-.45-.08-.08-.03-.15-.08-.24-.1-.13-.03-.26-.07-.39-.1-.21-.07-.42-.09-.62-.11-.48-.28-.98-.44-1.52-.47-.1-.04-.2-.1-.3-.13-.2-.07-.39-.13-.59-.2-.21-.07-.43-.09-.64-.12-.02-.01-.05-.03-.07-.04,0,0,0,0,0,0,0,0-.01,0-.02-.01,0,0,0,0,0,0-.2-.11-.39-.22-.61-.29-.3-.16-.61-.26-.94-.32-.1-.03-.18-.09-.28-.12-.1-.03-.2-.07-.29-.1-.16-.05-.33-.06-.49-.09-.35-.2-.72-.33-1.1-.4-.04-.02-.08-.05-.13-.06-.52-.27-1.08-.39-1.67-.38l-.73-.16s-.01,0-.02,0c-.06-.03-.12-.05-.18-.08-.12-.03-.23-.02-.35-.05-.08-.03-.16-.04-.24-.06-1.97-.9-3.94-1.81-5.91-2.71-.18-.08-.35-.14-.53-.17-.55-.5-1.23-.88-2.1-1.02-.06-.04-.11-.09-.18-.12-.39-.19-.77-.4-1.16-.58-.24-.11-.48-.22-.74-.3-.62-.64-1.46-1.09-2.55-1.2-.44-.35-.85-.74-1.23-1.15-.09-.1-.2-.17-.33-.24-.24-.27-.52-.52-.84-.72.01-.07.02-.14.03-.22.05-2.38.06-4.76.02-7.15,0-.37-.16-.74-.41-1.01.04-.13.07-.26.07-.41.05-1.65.1-3.29.15-4.94.02-.49-.26-.96-.67-1.24.06-1.86-.04-3.72-.29-5.61,0,0,.01-.01.02-.02l.23-.3c.14-.23.2-.49.2-.76.09-.99.09-1.98,0-2.97,0-.21-.04-.4-.13-.58,0-.01-.01-.02-.02-.04.2-.5.3-1.04.25-1.62-.19-2.36-.38-4.71-.57-7.07-.06-.73-.27-1.47-.61-2.13.08-.18.12-.37.11-.56-.03-1.07-.16-2.14-.38-3.18-.02-.1-.06-.19-.11-.29.63-1.39.53-3.01-.34-4.33.15-.43.11-.94-.11-1.34,0-.02,0-.04,0-.06.02-.02.03-.04.05-.06.14-.23.2-.49.2-.76v-.05c0-.18-.03-.35-.11-.51.04-.37-.03-.74-.23-1.05.02-.09.04-.18.07-.26.03-.11.02-.23.02-.34.04-.1.07-.2.09-.31.77-.83.43-2.57-1.04-2.57-.44,0-.78.16-1.02.41-.55.13-.91.48-1.11.93-.09-.02-.19-.03-.3-.03-.7,0-1.14.4-1.33.9-.99.11-1.96.54-2.82,1.23.97-.77.15-.13-.04,0-.25.17-.5.33-.76.48-.21.13-.43.25-.65.36-.14.07-1.03.6-.41.22.58-.37-.11.04-.29.1-.28.1-.57.19-.85.27-.58.16-1.16.28-1.75.37-1.02.16-2.12,1.15-2.64,2-1.87,1.22-3.82,2.29-5.87,3.19-.34.16-.55.45-.69.78-.34.32-.68.64-1.01.95-.12-.03-.25-.05-.39-.05-.95,0-1.43.73-1.45,1.47-.51.32-1.03.64-1.53.99-1.01.54-2.02,1.08-3.03,1.63-.8.5-.97,1.29-.77,1.97-.01.01-.02.03-.03.04-.82,1.11-1.19,2.51-1.23,3.98-.25.17-.44.44-.53.83-1.26,5.64-2.04,11.38-2.33,17.15,0,.03.01.05.01.08-.26.89-.36,1.81-.31,2.75,0,.04-.01.07-.02.11-.03.49-.07.98-.1,1.47,0,.13.02.25.05.37-.41,3.76-.61,7.55-.89,11.28-.07.94.04,1.82.28,2.64-.09.14-.19.26-.25.44-.88,2.67-.52,5.6-.29,8.35.13,1.6.28,3.19.43,4.78-.29,3.65-.58,7.29-.87,10.94-.07.82.06,1.54.3,2.18-.05.09-.09.18-.13.28-.76,1.99-1.45,4.01-2.06,6.05-.01.04-.02.09-.02.14-.02.04-.03.08-.04.13-.04.03-.09.06-.12.1-.15.14-.25.3-.31.48-.09.18-.14.37-.13.58,0,.06.02.11.02.17-.82,1.29-1.38,2.72-1.67,4.23-.01.02-.03.03-.04.05-.15.26-.27.54-.37.82-.06.17-.11.34-.14.52-.02.13-.04.27-.05.4,0,.04,0,.07,0,.11-.05.09-.1.18-.15.27-.19.35-.26.77-.15,1.16,0,.01,0,.02.01.03-.17.47-.32.94-.45,1.42-.02.09-.01.19-.02.28-.05.06-.11.12-.15.19-.19.36-.26.76-.15,1.16.02.07.03.13.04.2-.06.18-.09.36-.09.55-.05.23-.06.47,0,.71-.24,1.77-.4,3.53-.48,5.31-.12.2-.2.45-.2.74-.02,1.55-.05,3.11-.07,4.66-.04.37-.05.75-.02,1.13v.39c-.44.86-.14,2.11-.08,3.01.01.19.02.37.04.56-.03.11-.06.23-.08.35-.1.84-.04,1.68.17,2.49-.68.84-1.33,1.3-2.52,1.26-1.2.1-1.57,1.42-1.1,2.28-.09.49-.12.99-.06,1.48-.56,3.05-.65,5.91-.64,9.02,0,.91-.33,2.08.2,2.84-.17.45-.14.98.09,1.39-.55,2.13-.43,4.22-.33,6.35-.22.26-.36.58-.38.95l-.19,4.8c-.03.66-.03,1.58-.11,2.08-.12.82-.36,1.62-.31,2.45,0,.09.02.17.04.26-.07.24-.12.49-.12.76.03,2.19.07,4.38.1,6.57-.59.46-.71,1.37-.36,2.01-.1.28-.16.57-.18.86-.68.86-.31,2.49,1.12,2.49,0,0,0,0,.01,0,.39.26.87.42,1.46.42.5,0,.92-.11,1.27-.3,1.62-.24,3.34-.1,4.97-.07,1.86.03,3.72.07,5.58.11,3.72.09,7.44.21,11.15.35.5.02.98-.14,1.39-.4.3.02.6.03.9-.01,4.24-.62,8.66-.31,12.93-.31,4.4,0,8.81,0,13.21,0,0,0,0,0,0,0,.24.22.56.36.97.36.47,0,.83-.18,1.07-.45.14.08.3.15.49.19,1.72.33,3.46.27,5.2.28,1.76,0,3.53.02,5.29.02,3.53,0,7.05-.02,10.58-.11.39,0,.7-.14.93-.35,4.74.07,9.47.13,14.21.18.1,0,.18-.02.28-.02.39.27.89.44,1.49.44,7.88-.01,15.75-.2,23.62-.49.2.05.41.08.63.07,1.04-.04,2.03.44,3.07.41.33.15.74-.25,1.11-.27,1.13-.05,2.01.36,3.15.31.38-.02.69.15,1.04,0,.19,0,.95-.04,1.15-.05,3.26.88,6.38-.05,9.72-.25,1.74-.11,2.78.39,4.52.25.46.34,1.72-.11,2.32-.05.45.04.9.04,1.34.06.49.49,1.18.05,1.89,0,4.49-.34,8.94.15,13.44.53,4.29.36,8.61-.1,12.87-.63.35.17.73.29,1.15.3,2.87.11,5.77-.03,8.63-.2,2.94-.17,5.57-.02,8.51,0,.2,0,.66.04.85,0,7.07.72,14.02.7,21.18.12.21-.02.54-.09.74-.12.43.54,1.07.41,1.96.5,2.71.27,3.13-2.52,2.26-4.12.41-1.03.55-2.22.36-3.53Z"/>
  </g>
</svg>