<?xml version="1.0" encoding="UTF-8"?>
<svg id="Layer_2" data-name="Layer 2" xmlns="http://www.w3.org/2000/svg" viewBox="0 0 1572.05 845.7">
  <defs>
    <style>
      .cls-1 {
        stroke-width: 4.78px;
      }

      .cls-1, .cls-2, .cls-3 {
        stroke: #ae3238;
      }

      .cls-1, .cls-3 {
        fill: none;
        stroke-linecap: round;
        stroke-linejoin: round;
      }

      .cls-2 {
        fill: #e8bc68;
        stroke-miterlimit: 10;
      }

      .cls-2, .cls-3 {
        stroke-width: 6px;
      }

      .cls-4 {
        fill: #000;
        font-family: MyriadPro-Regular, 'Myriad Pro';
        font-size: 12px;
      }

      .cls-5 {
        fill: #c19457;
      }

      .cls-5, .cls-6, .cls-7 {
        stroke-width: 0px;
      }

      .cls-6 {
        fill: #f69856;
      }

      .cls-7 {
        fill: #be2132;
      }
    </style>
  </defs>
  <g id="Layer_1-2" data-name="Layer 1">
    <text class="cls-4" transform="translate(786.03 431)"><tspan x="0" y="0">F2BB57</tspan></text>
    <rect class="cls-2" x="3" y="3" width="1566.05" height="839.7" rx="17" ry="17"/>
    <g>
      <path class="cls-7" d="M238.25,412.98c-1.38,0-2.5-1.12-2.5-2.5v-58.34c0-1.38,1.12-2.5,2.5-2.5h33.95c3.63,0,6.59-2.96,6.59-6.59v-33.41h-2.56c-2.46,0-4.47,2.01-4.47,4.47v27.15c0,1.38-1.12,2.5-2.49,2.5,0,0-62.1.16-62.11.16-.66,0-1.3-.26-1.77-.73-.47-.47-.73-1.11-.73-1.77v-83.56c0-1.38,1.12-2.5,2.5-2.5h210.85c1.38,0,2.5,1.12,2.5,2.5v83.56c0,1.38-1.12,2.5-2.5,2.5h-62.67c-1.38,0-2.5-1.12-2.5-2.5v-28.01c0-1.9-1.55-3.45-3.44-3.45h-3.42v31.45c0,4.35,3.54,7.89,7.89,7.89h33.14c1.38,0,2.5,1.12,2.5,2.5v58.66c0,1.38-1.12,2.5-2.5,2.5h-148.75Z"/>
      <path class="cls-7" d="M418.01,257.86v83.56h-62.67v-28.01c0-3.28-2.66-5.95-5.95-5.95h-5.92v33.95c0,5.74,4.65,10.39,10.39,10.39h33.14v58.66h-148.75v-58.34h33.95c5.02,0,9.09-4.07,9.09-9.09v-35.91h-5.06c-3.85,0-6.97,3.12-6.97,6.97v27.15l-62.1.16v-83.56h210.85M418.01,252.86h-210.85c-2.76,0-5,2.24-5,5v83.56c0,1.33.53,2.6,1.47,3.54.94.93,2.21,1.46,3.53,1.46h.01l62.1-.16c2.76,0,4.99-2.24,4.99-5v-27.15c0-1.09.88-1.97,1.97-1.97h.06v30.91c0,2.25-1.83,4.09-4.09,4.09h-33.95c-2.76,0-5,2.24-5,5v58.34c0,2.76,2.24,5,5,5h148.75c2.76,0,5-2.24,5-5v-58.66c0-2.76-2.24-5-5-5h-33.14c-2.97,0-5.39-2.42-5.39-5.39v-28.95h.92c.52,0,.95.42.95.95v28.01c0,2.76,2.24,5,5,5h62.67c2.76,0,5-2.24,5-5v-83.56c0-2.76-2.24-5-5-5h0Z"/>
    </g>
    <g>
      <path class="cls-7" d="M238.25,401.98c-1.38,0-2.5-1.12-2.5-2.5v-58.34c0-1.38,1.12-2.5,2.5-2.5h33.95c3.63,0,6.59-2.96,6.59-6.59v-33.41h-2.56c-2.46,0-4.47,2-4.47,4.47v27.15c0,1.38-1.12,2.5-2.49,2.5,0,0-62.1.16-62.11.16-.66,0-1.3-.26-1.77-.73-.47-.47-.73-1.11-.73-1.77v-83.56c0-1.38,1.12-2.5,2.5-2.5h210.85c1.38,0,2.5,1.12,2.5,2.5v83.56c0,1.38-1.12,2.5-2.5,2.5h-62.67c-1.38,0-2.5-1.12-2.5-2.5v-28.01c0-1.9-1.55-3.45-3.44-3.45h-3.42v31.45c0,4.35,3.54,7.89,7.89,7.89h33.14c1.38,0,2.5,1.12,2.5,2.5v58.66c0,1.38-1.12,2.5-2.5,2.5h-148.75Z"/>
      <path class="cls-6" d="M418.01,246.86v83.56h-62.67v-28.01c0-3.28-2.66-5.95-5.95-5.95h-5.92v33.95c0,5.74,4.65,10.39,10.39,10.39h33.14v58.66h-148.75v-58.34h33.95c5.02,0,9.09-4.07,9.09-9.09v-35.91h-5.06c-3.85,0-6.97,3.12-6.97,6.97v27.15l-62.1.16v-83.56h210.85M418.01,241.86h-210.85c-2.76,0-5,2.24-5,5v83.56c0,1.33.53,2.6,1.47,3.54.94.93,2.21,1.46,3.53,1.46h.01l62.1-.16c2.76,0,4.99-2.24,4.99-5v-27.15c0-1.09.88-1.97,1.97-1.97h.06v30.91c0,2.25-1.83,4.09-4.09,4.09h-33.95c-2.76,0-5,2.24-5,5v58.34c0,2.76,2.24,5,5,5h148.75c2.76,0,5-2.24,5-5v-58.66c0-2.76-2.24-5-5-5h-33.14c-2.97,0-5.39-2.42-5.39-5.39v-28.95h.92c.52,0,.95.42.95.95v28.01c0,2.76,2.24,5,5,5h62.67c2.76,0,5-2.24,5-5v-83.56c0-2.76-2.24-5-5-5h0Z"/>
    </g>
    <g>
      <path class="cls-7" d="M548.37,412.98c-1.38,0-2.5-1.12-2.5-2.5v-58.04c0-1.38,1.12-2.5,2.5-2.5h11.02c4.31,0,7.96-2.92,9.05-6.89h-51.59c1.09,3.91,4.69,6.78,8.94,6.78h11.78c1.38,0,2.5,1.12,2.5,2.5v58.15c0,1.38-1.12,2.5-2.5,2.5h-109.64c-1.38,0-2.5-1.12-2.5-2.5v-58.58c0-1.38,1.12-2.5,2.5-2.5h13.1c4.39,0,7.96-3.57,7.96-7.96v-14.3c0-4.4-3.58-7.98-7.98-7.98h-13.09c-1.38,0-2.5-1.12-2.5-2.5v-58.8c0-1.38,1.12-2.5,2.5-2.5h109.42c1.38,0,2.5,1.12,2.5,2.5v58.58c0,1.38-1.12,2.5-2.5,2.5h-11.35c-4.31,0-7.96,2.92-9.05,6.89h51.71c-1.1-4.03-4.79-7-9.17-7h-11.45c-1.38,0-2.5-1.12-2.5-2.5v-58.47c0-1.38,1.12-2.5,2.5-2.5h109.64c1.38,0,2.5,1.12,2.5,2.5v58.69c0,1.38-1.12,2.5-2.5,2.5h-13.19c-4.22,0-7.66,3.44-7.66,7.66v14.3c0,4.8,3.91,8.71,8.71,8.71h12.14c1.38,0,2.5,1.12,2.5,2.5v58.25c0,1.38-1.12,2.5-2.5,2.5h-109.31Z"/>
      <path class="cls-7" d="M657.68,257.86v58.69h-13.19c-5.61,0-10.16,4.55-10.16,10.16v14.3c0,6.19,5.02,11.21,11.21,11.21h12.14v58.25h-109.31v-58.04h11.02c6.57,0,11.89-5.32,11.89-11.89h-57.27c0,6.51,5.27,11.78,11.78,11.78h11.78v58.15h-109.64v-58.58h13.1c5.78,0,10.46-4.68,10.46-10.46v-14.3c0-5.79-4.69-10.48-10.48-10.48h-13.09v-58.8h109.42v58.58h-11.35c-6.57,0-11.89,5.32-11.89,11.89h57.38c0-6.63-5.37-12-12-12h-11.45v-58.47h109.64M657.68,252.86h-109.64c-2.76,0-5,2.24-5,5v58.47c0,2.76,2.24,5,5,5h11.45c1.9,0,3.63.76,4.89,2h-43.12c1.24-1.17,2.9-1.89,4.74-1.89h11.35c2.76,0,5-2.24,5-5v-58.58c0-2.76-2.24-5-5-5h-109.42c-2.76,0-5,2.24-5,5v58.8c0,2.76,2.24,5,5,5h13.09c3.02,0,5.48,2.46,5.48,5.48v14.3c0,3.01-2.45,5.46-5.46,5.46h-13.1c-2.76,0-5,2.24-5,5v58.58c0,2.76,2.24,5,5,5h109.64c2.76,0,5-2.24,5-5v-58.15c0-2.76-2.24-5-5-5h-11.78c-1.76,0-3.37-.68-4.58-1.78h42.91c-1.24,1.17-2.9,1.89-4.74,1.89h-11.02c-2.76,0-5,2.24-5,5v58.04c0,2.76,2.24,5,5,5h109.31c2.76,0,5-2.24,5-5v-58.25c0-2.76-2.24-5-5-5h-12.14c-3.42,0-6.21-2.78-6.21-6.21v-14.3c0-2.85,2.31-5.16,5.16-5.16h13.19c2.76,0,5-2.24,5-5v-58.69c0-2.76-2.24-5-5-5h0Z"/>
    </g>
    <g>
      <path class="cls-7" d="M548.37,401.98c-1.38,0-2.5-1.12-2.5-2.5v-58.04c0-1.38,1.12-2.5,2.5-2.5h11.02c4.31,0,7.96-2.92,9.05-6.89h-51.59c1.09,3.91,4.69,6.78,8.94,6.78h11.78c1.38,0,2.5,1.12,2.5,2.5v58.15c0,1.38-1.12,2.5-2.5,2.5h-109.64c-1.38,0-2.5-1.12-2.5-2.5v-58.58c0-1.38,1.12-2.5,2.5-2.5h13.1c4.39,0,7.96-3.57,7.96-7.96v-14.3c0-4.4-3.58-7.98-7.98-7.98h-13.09c-1.38,0-2.5-1.12-2.5-2.5v-58.8c0-1.38,1.12-2.5,2.5-2.5h109.42c1.38,0,2.5,1.12,2.5,2.5v58.58c0,1.38-1.12,2.5-2.5,2.5h-11.35c-4.31,0-7.96,2.92-9.05,6.89h51.71c-1.1-4.03-4.79-7-9.17-7h-11.45c-1.38,0-2.5-1.12-2.5-2.5v-58.47c0-1.38,1.12-2.5,2.5-2.5h109.64c1.38,0,2.5,1.12,2.5,2.5v58.69c0,1.38-1.12,2.5-2.5,2.5h-13.19c-4.22,0-7.66,3.44-7.66,7.66v14.3c0,4.8,3.91,8.71,8.71,8.71h12.14c1.38,0,2.5,1.12,2.5,2.5v58.25c0,1.38-1.12,2.5-2.5,2.5h-109.31Z"/>
      <path class="cls-6" d="M657.68,246.86v58.69h-13.19c-5.61,0-10.16,4.55-10.16,10.16v14.3c0,6.19,5.02,11.21,11.21,11.21h12.14v58.25h-109.31v-58.04h11.02c6.57,0,11.89-5.32,11.89-11.89h-57.27c0,6.51,5.27,11.78,11.78,11.78h11.78v58.15h-109.64v-58.58h13.1c5.78,0,10.46-4.68,10.46-10.46v-14.3c0-5.79-4.69-10.48-10.48-10.48h-13.09v-58.8h109.42v58.58h-11.35c-6.57,0-11.89,5.32-11.89,11.89h57.38c0-6.63-5.37-12-12-12h-11.45v-58.47h109.64M657.68,241.86h-109.64c-2.76,0-5,2.24-5,5v58.47c0,2.76,2.24,5,5,5h11.45c1.9,0,3.63.76,4.89,2h-43.12c1.24-1.17,2.9-1.89,4.74-1.89h11.35c2.76,0,5-2.24,5-5v-58.58c0-2.76-2.24-5-5-5h-109.42c-2.76,0-5,2.24-5,5v58.8c0,2.76,2.24,5,5,5h13.09c3.02,0,5.48,2.46,5.48,5.48v14.3c0,3.01-2.45,5.46-5.46,5.46h-13.1c-2.76,0-5,2.24-5,5v58.58c0,2.76,2.24,5,5,5h109.64c2.76,0,5-2.24,5-5v-58.15c0-2.76-2.24-5-5-5h-11.78c-1.76,0-3.37-.68-4.58-1.78h42.91c-1.24,1.17-2.9,1.89-4.74,1.89h-11.02c-2.76,0-5,2.24-5,5v58.04c0,2.76,2.24,5,5,5h109.31c2.76,0,5-2.24,5-5v-58.25c0-2.76-2.24-5-5-5h-12.14c-3.42,0-6.21-2.78-6.21-6.21v-14.3c0-2.85,2.31-5.16,5.16-5.16h13.19c2.76,0,5-2.24,5-5v-58.69c0-2.76-2.24-5-5-5h0Z"/>
    </g>
    <g>
      <path class="cls-7" d="M780.43,412.98c-1.38,0-2.5-1.12-2.5-2.5v-58.53c0-1.38,1.12-2.5,2.5-2.5h14.23c.83,0,1.27-.55,1.42-.78.14-.22.42-.78.17-1.47l-2.17-3.17h-38.01l-1.77,2.89c-.51.83-.19,1.58-.04,1.86s.63.94,1.6.94h13.2c1.38,0,2.5,1.12,2.5,2.5v58.25c0,1.38-1.12,2.5-2.5,2.5h-100.36c-1.38,0-2.5-1.12-2.5-2.5v-58.25c0-1.38,1.12-2.5,2.5-2.5h11.94c3.85,0,7.43-2.08,9.33-5.42l10.4-18.22c.83-1.45.82-3.18-.02-4.62-.84-1.44-2.33-2.3-4-2.3h-10.63c-1.38,0-2.5-1.12-2.5-2.5v-58.8c0-1.38,1.12-2.5,2.5-2.5l130.53-.05c5.06,0,9.58,2.81,11.82,7.34l41.74,84.36c.88,1.78,2.66,2.89,4.65,2.9l11.88.04c1.38,0,2.49,1.12,2.49,2.5v58.04c0,1.38-1.12,2.5-2.5,2.5h-105.9ZM771.2,310.34c-.13,0-.18.08-.2.11l-9.49,16.99s-.06.12,0,.23c.07.11.16.11.2.11h19.11c.18,0,.31-.08.4-.23.09-.16.09-.31,0-.47l-9.83-16.64s-.06-.11-.19-.11Z"/>
      <path class="cls-7" d="M816.25,257.81c4.06,0,7.78,2.3,9.58,5.95l41.74,84.36c1.3,2.62,3.96,4.28,6.89,4.29l11.88.04v58.04h-105.9v-58.53h14.23c3.06,0,5.09-3.18,3.79-5.96l-3.06-4.46h-40.73l-2.5,4.09c-1.77,2.89.31,6.6,3.7,6.6h13.2v58.25h-100.36v-58.25h11.94c4.76,0,9.15-2.55,11.5-6.68l10.4-18.22c2.71-4.75-.72-10.66-6.19-10.66h-10.63v-58.8l130.53-.05h0M761.72,330.3h19.11c2.3,0,3.72-2.5,2.55-4.47l-9.84-16.64c-.53-.89-1.44-1.34-2.35-1.34s-1.86.47-2.38,1.4l-9.49,16.99c-1.02,1.82.3,4.07,2.39,4.07M816.25,252.81h0l-130.53.05c-2.76,0-5,2.24-5,5v58.8c0,2.76,2.24,5,5,5h10.63c1.07,0,1.61.66,1.84,1.06s.54,1.2,0,2.12l-10.4,18.22c-1.46,2.57-4.21,4.16-7.16,4.16h-11.94c-2.76,0-5,2.24-5,5v58.25c0,2.76,2.24,5,5,5h100.36c2.76,0,5-2.24,5-5v-58.25c0-2.76-2.24-5-5-5h-12.02l.42-.69h35.3l.29.42h-12.61c-2.76,0-5,2.24-5,5v58.53c0,2.76,2.24,5,5,5h105.9c2.76,0,5-2.24,5-5v-58.04c0-2.76-2.23-4.99-4.98-5l-11.88-.04c-1.03,0-1.96-.58-2.42-1.51l-41.74-84.36c-2.66-5.38-8.05-8.73-14.06-8.73h0ZM765.58,325.3l5.68-10.16,6.01,10.16h-11.68Z"/>
    </g>
    <g>
      <path class="cls-7" d="M780.43,401.98c-1.38,0-2.5-1.12-2.5-2.5v-58.53c0-1.38,1.12-2.5,2.5-2.5h14.23c.83,0,1.27-.55,1.42-.78.14-.22.42-.78.17-1.47l-2.17-3.17h-38.01l-1.77,2.89c-.51.83-.19,1.58-.04,1.86s.63.94,1.6.94h13.2c1.38,0,2.5,1.12,2.5,2.5v58.25c0,1.38-1.12,2.5-2.5,2.5h-100.36c-1.38,0-2.5-1.12-2.5-2.5v-58.25c0-1.38,1.12-2.5,2.5-2.5h11.94c3.85,0,7.43-2.08,9.33-5.42l10.4-18.22c.83-1.45.82-3.18-.02-4.62-.84-1.44-2.33-2.3-4-2.3h-10.63c-1.38,0-2.5-1.12-2.5-2.5v-58.8c0-1.38,1.12-2.5,2.5-2.5l130.53-.05c5.06,0,9.58,2.81,11.82,7.34l41.74,84.36c.88,1.78,2.67,2.89,4.65,2.9l11.88.04c1.38,0,2.49,1.12,2.49,2.5v58.04c0,1.38-1.12,2.5-2.5,2.5h-105.9ZM771.2,299.34c-.13,0-.18.08-.2.12l-9.49,16.99s-.06.12,0,.23c.07.12.16.12.2.12h19.11c.18,0,.31-.08.4-.23.09-.16.09-.31,0-.47l-9.83-16.64s-.07-.11-.19-.11Z"/>
      <path class="cls-6" d="M816.25,246.81c4.06,0,7.78,2.3,9.58,5.95l41.74,84.36c1.3,2.62,3.96,4.28,6.89,4.29l11.88.04v58.04h-105.9v-58.53h14.23c3.06,0,5.09-3.18,3.79-5.96l-3.06-4.46h-40.73l-2.5,4.09c-1.77,2.89.31,6.6,3.7,6.6h13.2v58.25h-100.36v-58.25h11.94c4.76,0,9.15-2.55,11.5-6.68l10.4-18.22c2.71-4.75-.72-10.66-6.19-10.66h-10.63v-58.8l130.53-.05h0M761.72,319.3h19.11c2.3,0,3.72-2.5,2.55-4.47l-9.84-16.64c-.53-.89-1.44-1.34-2.35-1.34-.93,0-1.86.47-2.38,1.4l-9.49,16.99c-1.02,1.82.3,4.07,2.39,4.07M816.25,241.81h0l-130.53.05c-2.76,0-5,2.24-5,5v58.8c0,2.76,2.24,5,5,5h10.63c1.07,0,1.61.66,1.84,1.06s.54,1.2,0,2.12l-10.4,18.22c-1.46,2.57-4.21,4.16-7.16,4.16h-11.94c-2.76,0-5,2.24-5,5v58.25c0,2.76,2.24,5,5,5h100.36c2.76,0,5-2.24,5-5v-58.25c0-2.76-2.24-5-5-5h-12.02l.42-.69h35.3l.29.42h-12.61c-2.76,0-5,2.24-5,5v58.53c0,2.76,2.24,5,5,5h105.9c2.76,0,5-2.24,5-5v-58.04c0-2.76-2.23-4.99-4.98-5l-11.88-.04c-1.03,0-1.96-.58-2.42-1.51l-41.74-84.36c-2.66-5.38-8.05-8.73-14.06-8.73h0ZM765.58,314.3l5.68-10.16,6.01,10.16h-11.68Z"/>
    </g>
    <g>
      <path class="cls-7" d="M1033.96,412.98c-.94,0-1.8-.53-2.23-1.36l-29.45-57.56v56.42c0,1.38-1.12,2.5-2.5,2.5h-102.16c-1.38,0-2.5-1.12-2.5-2.5v-58.39c0-1.38,1.12-2.5,2.5-2.5h13.77c4.18,0,7.59-3.4,7.59-7.59v-15.27c0-4.22-3.43-7.65-7.65-7.65h-13.71c-1.38,0-2.5-1.12-2.5-2.5v-58.72c0-1.38,1.12-2.5,2.5-2.5h87.23c.93,0,1.78.51,2.21,1.33l28.9,54.87v-53.7c0-1.38,1.12-2.5,2.5-2.5h103.42c1.38,0,2.5,1.12,2.5,2.5v58.66c0,1.38-1.12,2.5-2.5,2.5h-14.66c-3.77,0-6.84,3.07-6.84,6.84v16.8c0,4.06,3.3,7.36,7.36,7.36h14.14c1.38,0,2.5,1.12,2.5,2.5v57.95c0,1.38-1.12,2.5-2.5,2.5h-87.93ZM1031.68,354.82v-27.56c0-4.54-3.7-8.24-8.24-8.24h-3.54l5.19,9.85c3.57,6.31,5.48,13.56,5.48,20.89v5.06h1.11ZM986.82,341.88c0,4.38,3.57,7.95,7.95,7.95h5.02c.12,0,.24,0,.35.02l-6.15-12.02c-1.88-3.67-3.05-7.61-3.5-11.71l-1.38-12.7h-2.29v28.45Z"/>
      <path class="cls-7" d="M1121.89,257.86v58.66h-14.66c-5.16,0-9.34,4.18-9.34,9.34v16.8c0,5.44,4.41,9.86,9.86,9.86h14.14v57.95h-87.93l-37.74-73.78c-1.73-3.38-2.83-7.06-3.24-10.84l-1.62-14.93h-7.04v30.95c0,5.77,4.68,10.45,10.45,10.45h5.02v58.15h-102.16v-58.39h13.77c5.57,0,10.09-4.52,10.09-10.09v-15.27c0-5.6-4.54-10.15-10.15-10.15h-13.71v-58.72h87.23l38.02,72.18c3.4,6.02,5.19,12.81,5.19,19.73v7.56h6.11v-30.06c0-5.93-4.81-10.74-10.74-10.74h-4.97v-58.66h103.42M1121.89,252.86h-103.42c-2.76,0-5,2.24-5,5v43.59l-24.19-45.92c-.86-1.64-2.57-2.67-4.42-2.67h-87.23c-2.76,0-5,2.24-5,5v58.72c0,2.76,2.24,5,5,5h13.71c2.84,0,5.15,2.31,5.15,5.15v15.27c0,2.81-2.28,5.09-5.09,5.09h-13.77c-2.76,0-5,2.24-5,5v58.39c0,2.76,2.24,5,5,5h102.16c2.76,0,5-2.24,5-5v-46.05l24.72,48.32c.85,1.67,2.57,2.72,4.45,2.72h87.93c2.76,0,5-2.24,5-5v-57.95c0-2.76-2.24-5-5-5h-14.14c-2.68,0-4.86-2.18-4.86-4.86v-16.8c0-2.39,1.95-4.34,4.34-4.34h14.66c2.76,0,5-2.24,5-5v-58.66c0-2.76-2.24-5-5-5h0ZM1027.27,327.64l-3.2-6.08c2.87.31,5.12,2.75,5.12,5.71v4.19c-.58-1.3-1.21-2.57-1.91-3.81h0ZM994.77,347.33c-3,0-5.45-2.44-5.45-5.45v-8.97c.63,2.08,1.44,4.11,2.44,6.06l4.28,8.36h-1.27Z"/>
    </g>
    <g>
      <path class="cls-7" d="M1033.96,401.98c-.94,0-1.8-.53-2.23-1.36l-29.45-57.56v56.42c0,1.38-1.12,2.5-2.5,2.5h-102.16c-1.38,0-2.5-1.12-2.5-2.5v-58.39c0-1.38,1.12-2.5,2.5-2.5h13.77c4.18,0,7.59-3.4,7.59-7.59v-15.27c0-4.22-3.43-7.65-7.65-7.65h-13.71c-1.38,0-2.5-1.12-2.5-2.5v-58.72c0-1.38,1.12-2.5,2.5-2.5h87.23c.93,0,1.78.51,2.21,1.33l28.9,54.87v-53.7c0-1.38,1.12-2.5,2.5-2.5h103.42c1.38,0,2.5,1.12,2.5,2.5v58.66c0,1.38-1.12,2.5-2.5,2.5h-14.66c-3.77,0-6.84,3.07-6.84,6.84v16.8c0,4.06,3.3,7.36,7.36,7.36h14.14c1.38,0,2.5,1.12,2.5,2.5v57.95c0,1.38-1.12,2.5-2.5,2.5h-87.93ZM1031.68,343.82v-27.56c0-4.54-3.7-8.24-8.24-8.24h-3.54l5.19,9.85c3.57,6.31,5.48,13.56,5.48,20.89v5.06h1.11ZM986.82,330.88c0,4.38,3.57,7.95,7.95,7.95h5.02c.12,0,.24,0,.35.02l-6.15-12.02c-1.88-3.67-3.05-7.61-3.5-11.71l-1.38-12.7h-2.29v28.45Z"/>
      <path class="cls-6" d="M1121.89,246.86v58.66h-14.66c-5.16,0-9.34,4.18-9.34,9.34v16.8c0,5.44,4.41,9.86,9.86,9.86h14.14v57.95h-87.93l-37.74-73.78c-1.73-3.38-2.83-7.06-3.24-10.84l-1.62-14.93h-7.04v30.95c0,5.77,4.68,10.45,10.45,10.45h5.02v58.15h-102.16v-58.39h13.77c5.57,0,10.09-4.52,10.09-10.09v-15.27c0-5.61-4.54-10.15-10.15-10.15h-13.71v-58.72h87.23l38.02,72.18c3.4,6.02,5.19,12.81,5.19,19.73v7.56h6.11v-30.06c0-5.93-4.81-10.74-10.74-10.74h-4.97v-58.66h103.42M1121.89,241.86h-103.42c-2.76,0-5,2.24-5,5v43.59l-24.19-45.92c-.86-1.64-2.57-2.67-4.42-2.67h-87.23c-2.76,0-5,2.24-5,5v58.72c0,2.76,2.24,5,5,5h13.71c2.84,0,5.15,2.31,5.15,5.15v15.27c0,2.81-2.28,5.09-5.09,5.09h-13.77c-2.76,0-5,2.24-5,5v58.39c0,2.76,2.24,5,5,5h102.16c2.76,0,5-2.24,5-5v-46.05l24.72,48.32c.85,1.67,2.57,2.72,4.45,2.72h87.93c2.76,0,5-2.24,5-5v-57.95c0-2.76-2.24-5-5-5h-14.14c-2.68,0-4.86-2.18-4.86-4.86v-16.8c0-2.39,1.95-4.34,4.34-4.34h14.66c2.76,0,5-2.24,5-5v-58.66c0-2.76-2.24-5-5-5h0ZM1027.27,316.64l-3.2-6.08c2.87.31,5.12,2.75,5.12,5.71v4.19c-.58-1.3-1.21-2.57-1.91-3.81h0ZM994.77,336.33c-3,0-5.45-2.44-5.45-5.45v-8.97c.63,2.08,1.44,4.11,2.44,6.06l4.28,8.36h-1.27Z"/>
    </g>
    <g>
      <path class="cls-7" d="M1132.47,412.98c-1.38,0-2.5-1.12-2.5-2.5v-58.28c0-1.38,1.12-2.5,2.5-2.5h14.17c4.28,0,7.77-3.49,7.77-7.77v-15.06c0-4.51-3.67-8.18-8.18-8.18h-13.76c-1.38,0-2.5-1.12-2.5-2.5v-58.34c0-1.38,1.12-2.5,2.5-2.5h107.78c1.38,0,2.5,1.12,2.5,2.5v57.9c0,1.38-1.12,2.5-2.5,2.5h-9.19c-4.99,0-9.04,4.06-9.04,9.04v13.99c0,4.63,3.77,8.4,8.4,8.4h9.82c1.38,0,2.5,1.12,2.5,2.5v58.28c0,1.38-1.12,2.5-2.5,2.5h-107.78Z"/>
      <path class="cls-7" d="M1240.25,257.86v57.9h-9.19c-6.37,0-11.54,5.17-11.54,11.54v13.99c0,6.02,4.88,10.9,10.9,10.9h9.82v58.28h-107.78v-58.28h14.17c5.67,0,10.27-4.6,10.27-10.27v-15.06c0-5.9-4.78-10.68-10.68-10.68h-13.76v-58.34h107.78M1240.25,252.86h-107.78c-2.76,0-5,2.24-5,5v58.34c0,2.76,2.24,5,5,5h13.76c3.13,0,5.68,2.55,5.68,5.68v15.06c0,2.91-2.36,5.27-5.27,5.27h-14.17c-2.76,0-5,2.24-5,5v58.28c0,2.76,2.24,5,5,5h107.78c2.76,0,5-2.24,5-5v-58.28c0-2.76-2.24-5-5-5h-9.82c-3.26,0-5.9-2.65-5.9-5.9v-13.99c0-3.61,2.93-6.54,6.54-6.54h9.19c2.76,0,5-2.24,5-5v-57.9c0-2.76-2.24-5-5-5h0Z"/>
    </g>
    <g>
      <path class="cls-7" d="M1307.28,415.1c-.68,0-1.37,0-2.06-.02-14.47-.29-34.71-3.76-48.96-18.65-8.62-9.01-10.92-17.89-11.01-18.26-.02-.09-.04-.19-.05-.29l-4.55-35.37c-1.29.46-2.94.79-5.02.79-.85,0-1.74-.05-2.66-.16-5.86-.68-11.79-5.67-11.78-13.9,0-8.39,7.03-12.92,13.63-12.92.27,0,.54,0,.81.02,4.43.24,7.86,1.7,10.21,4.35,1.82,2.05,2.57,4.4,2.88,6.15h.79l10.56-8.55c1.24-1.01,2.68-1.74,4.21-2.16h-13.88c-1.38,0-2.5-1.12-2.5-2.5v-58.77c0-1.38,1.12-2.5,2.5-2.5h112.64c1.38,0,2.5,1.12,2.5,2.5v58.83c0,1.35-1.07,2.45-2.41,2.5l-15.56.55c-2.32,0-4.75,1-7.12,2.03h21.77c1.38,0,2.5,1.12,2.5,2.5v57.27c0,.18-.02.37-.06.55-.08.37-2.15,9.27-10.33,18.17-7.47,8.14-21.7,17.84-47.04,17.84ZM1288.44,336.23c3.82,1.11,7.28,2.71,10.68,4.28,5.22,2.41,10.16,4.69,16.14,5.11.46.03.91.05,1.35.05,6.71,0,10.28-3.78,12.09-6.95.81-1.42,1.24-3.1,1.24-4.86v-10.57l-19.41,8.32c-7.02,3.01-14.45,4.57-22.08,4.63Z"/>
      <path class="cls-7" d="M1363.03,254.86v58.83l-15.56.55c-3.34,0-6.64,1.65-9.71,2.97l-28.22,12.1c-6.81,2.92-14.15,4.43-21.56,4.43h-20.02v3.9l9.16-.33c.47-.02.92-.03,1.38-.03,14.52,0,22.94,9.88,36.59,10.83.52.04,1.03.05,1.52.05,8.08,0,12.27-4.73,14.26-8.21,1.06-1.85,1.57-3.97,1.57-6.1v-12.58h29.78v57.27s-7.64,34.06-54.93,34.06c-.66,0-1.34,0-2.01-.02-49.09-.98-57.6-35.02-57.6-35.02l-5.05-39.3s-1.53,2.54-7,2.54c-.72,0-1.51-.04-2.37-.14-4.96-.58-9.57-4.83-9.57-11.41,0-6.69,5.48-10.42,11.13-10.42.23,0,.45,0,.68.02,11.59.62,10.92,10.51,10.92,10.51h3.98l11.25-9.11c1.62-1.31,3.63-2.02,5.71-2.02h10.53v-4.58h-27.49v-58.77h112.64M1363.03,249.86h-112.64c-2.76,0-5,2.24-5,5v58.77c0,2.76,2.24,5,5,5h5.28l-5.46,4.42c-.55-1.33-1.35-2.72-2.51-4.03-1.93-2.18-5.57-4.85-11.95-5.19-.32-.02-.63-.03-.95-.03-9.2,0-16.13,6.63-16.13,15.42,0,9.69,7.04,15.57,14,16.38,1.02.12,2.01.18,2.95.18,1.05,0,2.02-.07,2.9-.2l4.19,32.6c.02.19.06.39.11.58.1.4,2.55,9.91,11.63,19.39,8.19,8.56,23.65,18.88,50.72,19.42.71.01,1.42.02,2.11.02,14.49,0,34.73-3.23,48.89-18.65,8.63-9.39,10.84-18.92,10.93-19.32.08-.36.12-.73.12-1.09v-57.27c0-1.33-.52-2.54-1.37-3.44,1.32-.9,2.19-2.42,2.19-4.14v-58.83c0-2.76-2.24-5-5-5h0ZM1299.03,337.71c4.27-.8,8.44-2.07,12.48-3.81l15.92-6.82v6.78c0,1.33-.31,2.58-.91,3.62-2.15,3.77-5.49,5.69-9.92,5.69-.38,0-.77-.01-1.17-.04-5.52-.39-10.25-2.57-15.26-4.88-.38-.17-.76-.35-1.14-.53h0Z"/>
    </g>
    <g>
      <path class="cls-7" d="M1308.28,407.1c-.68,0-1.37,0-2.06-.02-14.47-.29-34.71-3.76-48.96-18.65-8.62-9.01-10.92-17.89-11.01-18.26-.02-.09-.04-.19-.05-.29l-4.55-35.37c-1.29.46-2.94.79-5.02.79-.84,0-1.74-.05-2.66-.16-5.86-.68-11.79-5.67-11.78-13.9,0-8.39,7.03-12.92,13.63-12.92.27,0,.54,0,.81.02,4.43.24,7.86,1.7,10.21,4.35,1.82,2.05,2.57,4.4,2.88,6.15h.79l10.56-8.55c1.24-1.01,2.68-1.74,4.21-2.16h-13.88c-1.38,0-2.5-1.12-2.5-2.5v-58.77c0-1.38,1.12-2.5,2.5-2.5h112.64c1.38,0,2.5,1.12,2.5,2.5v58.83c0,1.35-1.07,2.45-2.41,2.5l-15.56.55c-2.32,0-4.75,1-7.12,2.03h21.77c1.38,0,2.5,1.12,2.5,2.5v57.27c0,.18-.02.37-.06.55-.08.37-2.15,9.27-10.33,18.17-7.47,8.14-21.7,17.84-47.04,17.84ZM1289.44,328.23c3.82,1.11,7.28,2.71,10.68,4.28,5.22,2.41,10.16,4.69,16.14,5.11.46.03.91.05,1.35.05,6.71,0,10.28-3.78,12.09-6.95.81-1.42,1.24-3.1,1.24-4.86v-10.57l-19.41,8.32c-7.02,3.01-14.45,4.57-22.08,4.63Z"/>
      <path class="cls-6" d="M1364.03,246.86v58.83l-15.56.55c-3.34,0-6.64,1.65-9.71,2.97l-28.22,12.1c-6.81,2.92-14.15,4.43-21.56,4.43h-20.02v3.9l9.16-.33c.47-.02.92-.03,1.38-.03,14.52,0,22.94,9.88,36.59,10.83.52.04,1.03.05,1.52.05,8.08,0,12.27-4.73,14.26-8.21,1.06-1.85,1.57-3.97,1.57-6.1v-12.58h29.78v57.27s-7.63,34.06-54.93,34.06c-.66,0-1.34,0-2.01-.02-49.09-.98-57.6-35.02-57.6-35.02l-5.05-39.3s-1.53,2.54-7,2.54c-.72,0-1.51-.04-2.37-.14-4.96-.58-9.57-4.83-9.57-11.41,0-6.69,5.48-10.42,11.13-10.42.23,0,.45,0,.68.02,11.59.62,10.92,10.51,10.92,10.51h3.98l11.25-9.11c1.62-1.31,3.63-2.02,5.71-2.02h10.53v-4.58h-27.49v-58.77h112.64M1364.03,241.86h-112.64c-2.76,0-5,2.24-5,5v58.77c0,2.76,2.24,5,5,5h5.28l-5.46,4.42c-.55-1.33-1.35-2.72-2.51-4.03-1.93-2.18-5.57-4.85-11.95-5.19-.32-.02-.63-.03-.95-.03-9.2,0-16.13,6.63-16.13,15.42,0,9.69,7.04,15.57,14,16.38,1.02.12,2.01.18,2.95.18,1.05,0,2.02-.07,2.9-.2l4.19,32.6c.02.19.06.39.11.58.1.4,2.55,9.91,11.63,19.39,8.19,8.56,23.65,18.88,50.72,19.42.71.01,1.42.02,2.11.02,14.49,0,34.73-3.23,48.89-18.65,8.63-9.39,10.84-18.92,10.93-19.32.08-.36.12-.73.12-1.09v-57.27c0-1.33-.52-2.54-1.37-3.44,1.32-.9,2.19-2.42,2.19-4.14v-58.83c0-2.76-2.24-5-5-5h0ZM1300.03,329.7c4.27-.8,8.44-2.07,12.48-3.81l15.92-6.82v6.78c0,1.33-.31,2.58-.91,3.62-2.15,3.77-5.49,5.69-9.92,5.69-.38,0-.77-.01-1.17-.04-5.52-.39-10.25-2.57-15.26-4.88-.38-.17-.76-.35-1.14-.53h0Z"/>
    </g>
    <g>
      <path class="cls-7" d="M1132.47,401.98c-1.38,0-2.5-1.12-2.5-2.5v-58.28c0-1.38,1.12-2.5,2.5-2.5h14.17c4.28,0,7.77-3.49,7.77-7.77v-15.06c0-4.51-3.67-8.18-8.18-8.18h-13.76c-1.38,0-2.5-1.12-2.5-2.5v-58.34c0-1.38,1.12-2.5,2.5-2.5h107.78c1.38,0,2.5,1.12,2.5,2.5v57.9c0,1.38-1.12,2.5-2.5,2.5h-9.19c-4.99,0-9.04,4.06-9.04,9.04v13.99c0,4.63,3.77,8.4,8.4,8.4h9.82c1.38,0,2.5,1.12,2.5,2.5v58.28c0,1.38-1.12,2.5-2.5,2.5h-107.78Z"/>
      <path class="cls-6" d="M1240.25,246.86v57.9h-9.19c-6.37,0-11.54,5.17-11.54,11.54v13.99c0,6.02,4.88,10.9,10.9,10.9h9.82v58.28h-107.78v-58.28h14.17c5.67,0,10.27-4.6,10.27-10.27v-15.06c0-5.9-4.78-10.68-10.68-10.68h-13.76v-58.34h107.78M1240.25,241.86h-107.78c-2.76,0-5,2.24-5,5v58.34c0,2.76,2.24,5,5,5h13.76c3.13,0,5.68,2.55,5.68,5.68v15.06c0,2.91-2.36,5.27-5.27,5.27h-14.17c-2.76,0-5,2.24-5,5v58.28c0,2.76,2.24,5,5,5h107.78c2.76,0,5-2.24,5-5v-58.28c0-2.76-2.24-5-5-5h-9.82c-3.26,0-5.9-2.65-5.9-5.9v-13.99c0-3.61,2.93-6.54,6.54-6.54h9.19c2.76,0,5-2.24,5-5v-57.9c0-2.76-2.24-5-5-5h0Z"/>
    </g>
    <ellipse class="cls-5" cx="777.02" cy="654.64" rx="124.4" ry="14.23"/>
    <g>
      <path class="cls-7" d="M508.58,626.6c-1.38,0-2.5-1.12-2.5-2.5v-64.04c0-1.38,1.12-2.5,2.5-2.5h45.61v-11.81c-.42.02-.85.02-1.28.02-9.46,0-18.78-3.63-19.17-3.79-.04-.02-.08-.03-.12-.05-.31-.14-30.79-14.01-40.5-16.55-9.62-2.51-28.55-2.75-28.74-2.76-1.37-.02-2.47-1.13-2.47-2.5v-64.15c0-1.38,1.12-2.5,2.5-2.5h120.87c1.38,0,2.5,1.12,2.5,2.5v64.17c0,1.38-1.12,2.5-2.5,2.5h-21.58c4.2.24,10.9,5.26,12.89,6.83.12.09.23.2.33.31l12.34,14.04h3.1c1.35-1.6,4.6-5.38,10.68-12.18,6.46-7.22,13.95-8.81,17.69-9.13v-.12h-23.85c-1.38,0-2.5-1.12-2.5-2.5v-63.93c0-1.38,1.12-2.5,2.5-2.5h120.27c.67,0,1.31.27,1.78.74.47.47.73,1.12.72,1.78l-.65,64.58c0,.69-.3,1.34-.8,1.81-.46.43-1.07.66-1.7.66-.06,0-.12,0-.17,0-2.48-.17-4.97-.26-7.41-.26-27.05,0-42.41,10.71-42.56,10.82-.09.06-.18.12-.28.17-17.38,9.24-29.24,11.5-29.74,11.6-.15.03-.3.04-.46.04h-8.19v6.72l5.3,5.3h40.64c1.38,0,2.5,1.12,2.5,2.5v64.15c0,1.38-1.12,2.5-2.5,2.5h-165.05Z"/>
      <path class="cls-7" d="M717.16,456l-.65,64.58c-2.62-.18-5.15-.27-7.58-.27-28.29,0-44.02,11.28-44.02,11.28-17.24,9.16-29.02,11.35-29.02,11.35h-10.69v10.25l6.76,6.76h41.67v64.15h-165.05v-64.04h48.11v-17.02c-1.24.16-2.51.23-3.78.23-9.1,0-18.26-3.61-18.26-3.61,0,0-30.87-14.07-40.91-16.69-10.04-2.62-29.35-2.84-29.35-2.84v-64.15h120.87v64.17h-26.26v4.91l4.34.08c3.68,0,11.7,6.3,11.7,6.3l13.09,14.89h5.4s3.03-3.68,11.37-13.01c6.89-7.71,14.91-8.38,17.48-8.38.54,0,.84.03.84.03v-5.07h-26.35v-63.93h120.27M717.16,451h-120.27c-2.76,0-5,2.24-5,5v63.93c0,2.76,2.24,5,5,5h10.05c-1.93,1.32-3.88,2.99-5.76,5.08-5.16,5.77-8.3,9.39-9.97,11.34h-.82l-11.6-13.19c-.2-.23-.43-.44-.67-.63-.89-.7-1.98-1.52-3.19-2.36h10.33c2.76,0,5-2.24,5-5v-64.17c0-2.76-2.24-5-5-5h-120.87c-2.76,0-5,2.24-5,5v64.15c0,2.74,2.2,4.97,4.94,5,.19,0,18.82.24,28.14,2.67,9.5,2.48,39.79,16.26,40.1,16.4.08.04.16.07.24.1.39.16,9.37,3.66,18.87,3.94v6.81h-43.11c-2.76,0-5,2.24-5,5v64.04c0,2.76,2.24,5,5,5h165.05c2.76,0,5-2.24,5-5v-64.15c0-2.76-2.24-5-5-5h-39.6l-3.83-3.83v-3.18h5.69c.31,0,.61-.03.91-.08.51-.09,12.74-2.43,30.45-11.85.2-.1.39-.22.57-.35.13-.09,14.97-10.35,41.1-10.35,2.38,0,4.81.09,7.24.25.12,0,.23.01.35.01,1.25,0,2.47-.47,3.39-1.33,1.01-.93,1.59-2.25,1.61-3.62l.65-64.58c.01-1.33-.51-2.62-1.45-3.57s-2.22-1.48-3.55-1.48h0ZM717.16,461h0,0Z"/>
    </g>
    <g>
      <path class="cls-7" d="M508.58,615.6c-1.38,0-2.5-1.12-2.5-2.5v-64.04c0-1.38,1.12-2.5,2.5-2.5h45.61v-11.81c-.42.02-.85.02-1.28.02-9.46,0-18.78-3.63-19.17-3.79-.04-.02-.08-.03-.12-.05-.31-.14-30.79-14.01-40.5-16.55-9.62-2.51-28.55-2.75-28.74-2.76-1.37-.02-2.47-1.13-2.47-2.5v-64.15c0-1.38,1.12-2.5,2.5-2.5h120.87c1.38,0,2.5,1.12,2.5,2.5v64.17c0,1.38-1.12,2.5-2.5,2.5h-21.58c4.2.23,10.91,5.26,12.9,6.83.12.09.23.2.33.32l12.34,14.04h3.1c1.35-1.6,4.6-5.39,10.68-12.18,6.46-7.22,13.95-8.81,17.69-9.13v-.12h-23.85c-1.38,0-2.5-1.12-2.5-2.5v-63.93c0-1.38,1.12-2.5,2.5-2.5h120.27c.67,0,1.31.27,1.78.74.47.47.73,1.12.72,1.78l-.65,64.58c0,.69-.3,1.34-.8,1.81-.46.43-1.07.66-1.7.66-.06,0-.12,0-.17,0-2.48-.17-4.97-.26-7.41-.26-27.05,0-42.41,10.71-42.56,10.82-.09.06-.18.12-.28.17-17.38,9.24-29.24,11.5-29.74,11.6-.15.03-.3.04-.46.04h-8.19v6.72l5.3,5.3h40.64c1.38,0,2.5,1.12,2.5,2.5v64.15c0,1.38-1.12,2.5-2.5,2.5h-165.05Z"/>
      <path class="cls-6" d="M717.16,445l-.65,64.58c-2.62-.18-5.15-.27-7.58-.27-28.29,0-44.02,11.28-44.02,11.28-17.24,9.16-29.02,11.35-29.02,11.35h-10.69v10.25l6.76,6.76h41.67v64.15h-165.05v-64.04h48.11v-17.02c-1.24.16-2.51.23-3.78.23-9.1,0-18.26-3.61-18.26-3.61,0,0-30.87-14.07-40.91-16.69-10.04-2.62-29.35-2.84-29.35-2.84v-64.15h120.87v64.17h-26.26v4.91l4.34.08c3.68,0,11.7,6.3,11.7,6.3l13.09,14.89h5.4s3.03-3.68,11.37-13.01c6.89-7.71,14.91-8.38,17.48-8.38.54,0,.84.03.84.03v-5.07h-26.35v-63.93h120.27M717.16,440h-120.27c-2.76,0-5,2.24-5,5v63.93c0,2.76,2.24,5,5,5h10.05c-1.93,1.32-3.88,2.98-5.76,5.08-5.16,5.77-8.3,9.39-9.97,11.34h-.82l-11.6-13.19c-.2-.23-.43-.44-.67-.63-.89-.7-1.98-1.52-3.19-2.36h10.33c2.76,0,5-2.24,5-5v-64.17c0-2.76-2.24-5-5-5h-120.87c-2.76,0-5,2.24-5,5v64.15c0,2.74,2.2,4.97,4.94,5,.19,0,18.82.24,28.14,2.67,9.5,2.48,39.79,16.26,40.1,16.4.08.04.16.07.24.1.39.16,9.37,3.66,18.87,3.94v6.81h-43.11c-2.76,0-5,2.24-5,5v64.04c0,2.76,2.24,5,5,5h165.05c2.76,0,5-2.24,5-5v-64.15c0-2.76-2.24-5-5-5h-39.6l-3.83-3.83v-3.18h5.69c.31,0,.61-.03.91-.08.51-.09,12.74-2.43,30.45-11.85.2-.1.39-.22.57-.35.13-.09,14.97-10.35,41.1-10.35,2.38,0,4.81.09,7.24.25.12,0,.23.01.35.01,1.25,0,2.47-.47,3.39-1.33,1.01-.93,1.59-2.25,1.61-3.62l.65-64.58c.01-1.33-.51-2.62-1.45-3.57s-2.22-1.48-3.55-1.48h0ZM717.16,450h0,0Z"/>
    </g>
    <g>
      <path class="cls-7" d="M969.47,634.45c-19.43,0-38.36-3.51-57.87-10.72-14.98-5.54-34.61-16.49-43.03-37.18-5.09-12.5-3.64-22.56-3.57-22.98,0-.04,5.35-27.03,5.35-27.03.45-2.29.04-4.64-1.17-6.64-1.02-1.68-2.87-2.73-4.83-2.73h-18.31c-1.38,0-2.5-1.12-2.5-2.5v-65.13c0-1.38,1.12-2.5,2.5-2.5h117.65c1.37,0,2.49,1.1,2.5,2.48l.6,64.31c0,.69-.27,1.36-.78,1.83-.47.44-1.08.69-1.72.69-.05,0-.1,0-.15,0-1.13-.07-2.46-.14-3.86-.14-9.47,0-14.15,3.32-15.19,10.76-1,7.19.52,10.25,1.99,13.21l.31.62c1.85,3.77,8.74,10.39,22.86,11.26.43.03.86.04,1.29.04,6.34,0,12.44-2.8,16.04-5.43l.41-.3c2.94-2.12,7.39-5.32,7.44-16.07.02-4.46-1.14-7.89-3.46-10.22-3.21-3.23-8.11-3.9-11.65-3.9-2.08,0-3.53.24-3.55.25-.14.02-.28.04-.42.04-.59,0-1.16-.21-1.61-.59-.56-.47-.89-1.17-.89-1.91v-64.42c0-1.38,1.12-2.5,2.5-2.5h117.82c1.38,0,2.5,1.12,2.5,2.5v56.56c0,1.38-1.12,2.5-2.5,2.5h-15.89c-2.1,0-4.02,1.23-4.9,3.14-.78,1.69-1.1,3.56-.94,5.41l3.28,38.48c.01.14.01.28,0,.42-1.47,17.17-7.38,31.27-17.57,41.9-8.54,8.91-20.12,15.24-33.51,18.31-1.57.36-3.19.74-4.88,1.14-13.29,3.14-29.83,7.04-50.27,7.04Z"/>
      <path class="cls-7" d="M1094.15,459.54v56.56h-15.89c-3.08,0-5.88,1.8-7.17,4.6-.96,2.08-1.36,4.38-1.16,6.67l3.28,38.48c-3.05,35.78-25.58,52.58-49.15,57.98-13.64,3.13-31.83,8.11-54.6,8.11-16.57,0-35.57-2.64-57-10.57-50.89-18.82-45-57.44-45-57.44l5.33-26.92c.57-2.89.04-5.89-1.48-8.42h0c-1.47-2.44-4.12-3.93-6.97-3.93h-18.31v-65.13h117.65l.6,64.31c-1.16-.07-2.53-.14-4-.14-6.88,0-16.09,1.61-17.66,12.91-1.18,8.46.89,11.94,2.52,15.27,2.56,5.24,10.69,11.78,24.95,12.65.48.03.96.04,1.44.04,7.1,0,13.71-3.14,17.52-5.9,2.99-2.18,8.82-5.82,8.87-18.37.06-14.63-11.36-16.63-17.61-16.63-2.35,0-3.97.28-3.97.28v-64.42h117.82M1094.15,454.54h-117.82c-2.76,0-5,2.24-5,5v64.42c0,1.48.65,2.88,1.78,3.83.91.76,2.05,1.17,3.22,1.17.29,0,.57-.02.86-.07h0s1.28-.21,3.11-.21c2.51,0,7.14.41,9.88,3.17,1.83,1.83,2.74,4.67,2.73,8.44-.04,9.47-3.71,12.12-6.4,14.05l-.42.3c-3.28,2.39-8.83,4.95-14.57,4.95-.38,0-.76-.01-1.14-.03-12.97-.79-19.16-6.57-20.77-9.86l-.31-.63c-1.42-2.86-2.64-5.33-1.75-11.75.85-6.11,4.53-8.6,12.71-8.6,1.33,0,2.56.07,3.71.13.1,0,.2,0,.3,0,1.28,0,2.51-.49,3.45-1.38,1-.96,1.57-2.28,1.55-3.67l-.6-64.31c-.03-2.74-2.26-4.95-5-4.95h-117.65c-2.76,0-5,2.24-5,5v65.13c0,2.76,2.24,5,5,5h18.31c1.09,0,2.13.58,2.69,1.52.88,1.46,1.19,3.19.85,4.86l-5.33,26.92c-.01.07-.03.14-.04.22-.07.45-1.62,11.17,3.73,24.3,8.77,21.53,29.03,32.87,44.48,38.58,19.8,7.32,39.01,10.88,58.74,10.88,20.73,0,37.43-3.94,50.85-7.1,1.68-.4,3.3-.78,4.87-1.14,13.86-3.18,25.88-9.75,34.76-19.01,10.6-11.06,16.74-25.66,18.25-43.42.02-.28.02-.57,0-.85l-3.28-38.48c-.12-1.42.13-2.86.73-4.15.47-1.02,1.5-1.69,2.63-1.69h15.89c2.76,0,5-2.24,5-5v-56.56c0-2.76-2.24-5-5-5h0Z"/>
    </g>
    <g>
      <path class="cls-7" d="M969.47,623.45c-19.43,0-38.36-3.51-57.87-10.72-14.98-5.54-34.61-16.49-43.03-37.18-5.09-12.5-3.64-22.56-3.57-22.98,0-.04,5.35-27.03,5.35-27.03.45-2.29.04-4.64-1.17-6.64-1.02-1.68-2.87-2.73-4.83-2.73h-18.31c-1.38,0-2.5-1.12-2.5-2.5v-65.13c0-1.38,1.12-2.5,2.5-2.5h117.65c1.37,0,2.49,1.1,2.5,2.48l.6,64.31c0,.69-.27,1.36-.78,1.83-.47.44-1.08.69-1.72.69-.05,0-.1,0-.15,0-1.13-.07-2.46-.14-3.86-.14-9.47,0-14.15,3.32-15.19,10.76-1,7.19.52,10.25,1.99,13.21l.31.62c1.85,3.77,8.74,10.39,22.86,11.26.43.03.86.04,1.29.04,6.34,0,12.44-2.8,16.04-5.42l.41-.3c2.94-2.12,7.39-5.32,7.44-16.07.02-4.46-1.14-7.89-3.46-10.22-3.21-3.23-8.11-3.9-11.65-3.9-2.08,0-3.53.24-3.55.25-.14.02-.28.04-.42.04-.59,0-1.16-.21-1.61-.59-.56-.47-.89-1.17-.89-1.91v-64.42c0-1.38,1.12-2.5,2.5-2.5h117.82c1.38,0,2.5,1.12,2.5,2.5v56.56c0,1.38-1.12,2.5-2.5,2.5h-15.89c-2.1,0-4.02,1.23-4.9,3.14-.78,1.69-1.1,3.56-.94,5.41l3.28,38.48c.01.14.01.28,0,.42-1.47,17.17-7.38,31.27-17.57,41.9-8.54,8.91-20.12,15.24-33.51,18.3-1.57.36-3.2.74-4.88,1.14-13.29,3.13-29.83,7.04-50.27,7.04Z"/>
      <path class="cls-6" d="M1094.15,448.54v56.56h-15.89c-3.08,0-5.88,1.8-7.17,4.6-.96,2.08-1.36,4.38-1.16,6.67l3.28,38.48c-3.05,35.78-25.58,52.58-49.15,57.98-13.64,3.13-31.82,8.11-54.6,8.11-16.57,0-35.57-2.64-57-10.57-50.89-18.82-45-57.44-45-57.44l5.33-26.92c.57-2.89.04-5.89-1.48-8.42h0c-1.47-2.44-4.12-3.93-6.97-3.93h-18.31v-65.13h117.65l.6,64.31c-1.16-.07-2.53-.14-4-.14-6.88,0-16.09,1.61-17.66,12.91-1.18,8.46.89,11.94,2.52,15.27,2.56,5.24,10.69,11.78,24.95,12.65.48.03.96.04,1.44.04,7.1,0,13.71-3.14,17.52-5.9,2.99-2.18,8.82-5.82,8.87-18.37.06-14.63-11.36-16.63-17.61-16.63-2.35,0-3.97.28-3.97.28v-64.42h117.82M1094.15,443.54h-117.82c-2.76,0-5,2.24-5,5v64.42c0,1.48.65,2.88,1.78,3.83.91.76,2.05,1.17,3.22,1.17.29,0,.57-.02.86-.07h0s1.28-.21,3.11-.21c2.51,0,7.14.41,9.88,3.17,1.83,1.83,2.74,4.67,2.73,8.44-.04,9.47-3.71,12.12-6.4,14.05l-.42.3c-3.28,2.39-8.83,4.95-14.57,4.95-.38,0-.76-.01-1.14-.03-12.97-.79-19.16-6.57-20.77-9.86l-.31-.63c-1.42-2.86-2.64-5.33-1.75-11.75.85-6.11,4.53-8.6,12.71-8.6,1.33,0,2.56.07,3.71.13.1,0,.2,0,.3,0,1.28,0,2.51-.49,3.45-1.38,1-.96,1.57-2.28,1.55-3.67l-.6-64.31c-.03-2.74-2.26-4.95-5-4.95h-117.65c-2.76,0-5,2.24-5,5v65.13c0,2.76,2.24,5,5,5h18.31c1.09,0,2.13.58,2.69,1.52.88,1.46,1.19,3.19.85,4.86l-5.33,26.92c-.01.07-.03.14-.04.22-.07.45-1.62,11.17,3.73,24.3,8.77,21.53,29.03,32.87,44.48,38.58,19.8,7.32,39.01,10.88,58.74,10.88,20.73,0,37.43-3.94,50.85-7.1,1.68-.4,3.3-.78,4.87-1.14,13.86-3.18,25.88-9.75,34.76-19.01,10.6-11.06,16.74-25.66,18.25-43.42.02-.28.02-.57,0-.85l-3.28-38.48c-.12-1.42.13-2.86.73-4.15.47-1.02,1.5-1.69,2.63-1.69h15.89c2.76,0,5-2.24,5-5v-56.56c0-2.76-2.24-5-5-5h0Z"/>
    </g>
    <line class="cls-3" x1="3" y1="75.3" x2="1569.05" y2="75.3"/>
    <g>
      <line class="cls-1" x1="37.45" y1="55.07" x2="66.44" y2="26.07"/>
      <line class="cls-1" x1="37.45" y1="26.07" x2="66.44" y2="55.07"/>
    </g>
    <line class="cls-1" x1="117.98" y1="55.07" x2="88.6" y2="55.07"/>
    <rect class="cls-1" x="140.14" y="23.96" width="31.11" height="31.11"/>
  </g>
</svg>