<?xml version="1.0" encoding="UTF-8"?>
<svg id="Layer_2" data-name="Layer 2" xmlns="http://www.w3.org/2000/svg" xmlns:xlink="http://www.w3.org/1999/xlink" viewBox="0 0 1165.87 396.07">
  <defs>
    <style>
      .cls-1 {
        fill: #ae3238;
      }

      .cls-1, .cls-2, .cls-3, .cls-4, .cls-5, .cls-6, .cls-7 {
        stroke-width: 0px;
      }

      .cls-8 {
        clip-path: url(#clippath);
      }

      .cls-2, .cls-9 {
        fill: none;
      }

      .cls-3 {
        fill: #e49660;
      }

      .cls-9 {
        stroke: #ae3238;
        stroke-linecap: round;
        stroke-linejoin: round;
        stroke-width: 1.23px;
      }

      .cls-10 {
        clip-path: url(#clippath-1);
      }

      .cls-4 {
        fill: #f3deb4;
      }

      .cls-5 {
        fill: #e8bc68;
      }

      .cls-6 {
        fill: #f69856;
      }

      .cls-7 {
        fill: #be2132;
      }
    </style>
    <clipPath id="clippath">
      <rect class="cls-2" x="474.98" y="174.18" width="221.89" height="221.89"/>
    </clipPath>
    <clipPath id="clippath-1">
      <rect class="cls-2" x="486.76" y="183.44" width="189.82" height="229.09"/>
    </clipPath>
  </defs>
  <g id="Layer_1-2" data-name="Layer 1">
    <g>
      <path class="cls-7" d="M36.09,160.17c-1.38,0-2.5-1.12-2.5-2.5v-58.34c0-1.38,1.12-2.5,2.5-2.5h33.95c3.63,0,6.59-2.96,6.59-6.59v-33.41h-2.56c-2.46,0-4.47,2.01-4.47,4.47v27.15c0,1.38-1.12,2.5-2.49,2.5,0,0-62.1.16-62.11.16-.66,0-1.3-.26-1.77-.73-.47-.47-.73-1.11-.73-1.77V5.05c0-1.38,1.12-2.5,2.5-2.5h210.85c1.38,0,2.5,1.12,2.5,2.5v83.56c0,1.38-1.12,2.5-2.5,2.5h-62.67c-1.38,0-2.5-1.12-2.5-2.5v-28.01c0-1.9-1.55-3.45-3.45-3.45h-3.42v31.45c0,4.35,3.54,7.89,7.89,7.89h33.14c1.38,0,2.5,1.12,2.5,2.5v58.66c0,1.38-1.12,2.5-2.5,2.5H36.09Z"/>
      <path class="cls-6" d="M215.85,5.05v83.56h-62.67v-28.01c0-3.28-2.66-5.95-5.95-5.95h-5.92v33.95c0,5.74,4.65,10.39,10.39,10.39h33.14v58.66H36.09v-58.34h33.95c5.02,0,9.09-4.07,9.09-9.09v-35.91h-5.06c-3.85,0-6.97,3.12-6.97,6.97v27.15l-62.1.16V5.05h210.85M215.85.05H5C2.24.05,0,2.29,0,5.05v83.56c0,1.33.53,2.6,1.47,3.54.94.93,2.21,1.46,3.53,1.46h.01l62.1-.16c2.76,0,4.99-2.24,4.99-5v-27.15c0-1.09.88-1.97,1.97-1.97h.06v30.91c0,2.25-1.83,4.09-4.09,4.09h-33.95c-2.76,0-5,2.24-5,5v58.34c0,2.76,2.24,5,5,5h148.75c2.76,0,5-2.24,5-5v-58.66c0-2.76-2.24-5-5-5h-33.14c-2.97,0-5.39-2.42-5.39-5.39v-28.95h.92c.52,0,.95.42.95.95v28.01c0,2.76,2.24,5,5,5h62.67c2.76,0,5-2.24,5-5V5.05c0-2.76-2.24-5-5-5h0Z"/>
    </g>
    <g>
      <path class="cls-7" d="M346.21,160.17c-1.38,0-2.5-1.12-2.5-2.5v-58.04c0-1.38,1.12-2.5,2.5-2.5h11.02c4.31,0,7.96-2.92,9.05-6.89h-51.59c1.09,3.91,4.69,6.78,8.94,6.78h11.78c1.38,0,2.5,1.12,2.5,2.5v58.15c0,1.38-1.12,2.5-2.5,2.5h-109.64c-1.38,0-2.5-1.12-2.5-2.5v-58.58c0-1.38,1.12-2.5,2.5-2.5h13.1c4.39,0,7.96-3.57,7.96-7.96v-14.3c0-4.4-3.58-7.98-7.98-7.98h-13.09c-1.38,0-2.5-1.12-2.5-2.5V5.05c0-1.38,1.12-2.5,2.5-2.5h109.42c1.38,0,2.5,1.12,2.5,2.5v58.58c0,1.38-1.12,2.5-2.5,2.5h-11.35c-4.31,0-7.96,2.92-9.05,6.89h51.71c-1.1-4.03-4.79-7-9.17-7h-11.45c-1.38,0-2.5-1.12-2.5-2.5V5.05c0-1.38,1.12-2.5,2.5-2.5h109.64c1.38,0,2.5,1.12,2.5,2.5v58.69c0,1.38-1.12,2.5-2.5,2.5h-13.19c-4.22,0-7.66,3.44-7.66,7.66v14.3c0,4.8,3.91,8.71,8.71,8.71h12.14c1.38,0,2.5,1.12,2.5,2.5v58.25c0,1.38-1.12,2.5-2.5,2.5h-109.31Z"/>
      <path class="cls-6" d="M455.52,5.05v58.69h-13.19c-5.61,0-10.16,4.55-10.16,10.16v14.3c0,6.19,5.02,11.21,11.21,11.21h12.14v58.25h-109.31v-58.04h11.02c6.57,0,11.89-5.32,11.89-11.89h-57.27c0,6.51,5.27,11.78,11.78,11.78h11.78v58.15h-109.64v-58.58h13.1c5.78,0,10.46-4.68,10.46-10.46v-14.3c0-5.79-4.69-10.48-10.48-10.48h-13.09V5.05h109.42v58.58h-11.35c-6.57,0-11.89,5.32-11.89,11.89h57.38c0-6.63-5.37-12-12-12h-11.45V5.05h109.64M455.52.05h-109.64c-2.76,0-5,2.24-5,5v58.47c0,2.76,2.24,5,5,5h11.45c1.9,0,3.63.76,4.89,2h-43.12c1.24-1.17,2.9-1.89,4.74-1.89h11.35c2.76,0,5-2.24,5-5V5.05c0-2.76-2.24-5-5-5h-109.42c-2.76,0-5,2.24-5,5v58.8c0,2.76,2.24,5,5,5h13.09c3.02,0,5.48,2.46,5.48,5.48v14.3c0,3.01-2.45,5.46-5.46,5.46h-13.1c-2.76,0-5,2.24-5,5v58.58c0,2.76,2.24,5,5,5h109.64c2.76,0,5-2.24,5-5v-58.15c0-2.76-2.24-5-5-5h-11.78c-1.76,0-3.37-.68-4.58-1.78h42.91c-1.24,1.17-2.9,1.89-4.74,1.89h-11.02c-2.76,0-5,2.24-5,5v58.04c0,2.76,2.24,5,5,5h109.31c2.76,0,5-2.24,5-5v-58.25c0-2.76-2.24-5-5-5h-12.14c-3.42,0-6.21-2.78-6.21-6.21v-14.3c0-2.85,2.31-5.16,5.16-5.16h13.19c2.76,0,5-2.24,5-5V5.05c0-2.76-2.24-5-5-5h0Z"/>
    </g>
    <g>
      <path class="cls-7" d="M578.27,160.17c-1.38,0-2.5-1.12-2.5-2.5v-58.53c0-1.38,1.12-2.5,2.5-2.5h14.23c.83,0,1.27-.55,1.42-.78.14-.22.42-.78.17-1.47l-2.17-3.17h-38.01l-1.77,2.89c-.51.83-.19,1.58-.04,1.86s.63.94,1.6.94h13.2c1.38,0,2.5,1.12,2.5,2.5v58.25c0,1.38-1.12,2.5-2.5,2.5h-100.36c-1.38,0-2.5-1.12-2.5-2.5v-58.25c0-1.38,1.12-2.5,2.5-2.5h11.94c3.85,0,7.43-2.08,9.33-5.42l10.4-18.22c.83-1.45.82-3.18-.02-4.62-.84-1.44-2.33-2.3-4-2.3h-10.63c-1.38,0-2.5-1.12-2.5-2.5V5.05c0-1.38,1.12-2.5,2.5-2.5l130.53-.05c5.06,0,9.58,2.81,11.82,7.34l41.74,84.36c.88,1.78,2.66,2.89,4.65,2.9l11.88.04c1.38,0,2.49,1.12,2.49,2.5v58.04c0,1.38-1.12,2.5-2.5,2.5h-105.9Z"/>
      <path class="cls-6" d="M614.09,5c4.06,0,7.78,2.3,9.58,5.95l41.74,84.36c1.3,2.62,3.96,4.28,6.89,4.29l11.88.04v58.04h-105.9v-58.53h14.23c3.06,0,5.09-3.18,3.79-5.96l-3.06-4.46h-40.73l-2.5,4.09c-1.77,2.89.31,6.6,3.7,6.6h13.2v58.25h-100.36v-58.25h11.94c4.76,0,9.15-2.55,11.5-6.68l10.4-18.22c2.71-4.75-.72-10.66-6.19-10.66h-10.63V5.05l130.53-.05h0M614.09,0h0l-130.53.05c-2.76,0-5,2.24-5,5v58.8c0,2.76,2.24,5,5,5h10.63c1.07,0,1.61.66,1.84,1.06.23.4.54,1.2,0,2.12l-10.4,18.22c-1.46,2.57-4.21,4.16-7.16,4.16h-11.94c-2.76,0-5,2.24-5,5v58.25c0,2.76,2.24,5,5,5h100.36c2.76,0,5-2.24,5-5v-58.25c0-2.76-2.24-5-5-5h-12.02l.42-.69h35.3l.29.42h-12.61c-2.76,0-5,2.24-5,5v58.53c0,2.76,2.24,5,5,5h105.9c2.76,0,5-2.24,5-5v-58.04c0-2.76-2.23-4.99-4.98-5l-11.88-.04c-1.03,0-1.96-.58-2.42-1.51l-41.74-84.36c-2.66-5.38-8.05-8.73-14.06-8.73h0Z"/>
    </g>
    <g>
      <path class="cls-7" d="M554.9,79.99c-.89,0-1.71-.47-2.16-1.23-.45-.77-.46-1.71-.03-2.48l14.07-25.2c.44-.78,1.26-1.27,2.15-1.28h.03c.88,0,1.7.47,2.15,1.23l14.89,25.2c.46.77.46,1.73.02,2.51-.44.78-1.27,1.26-2.17,1.26h-28.96Z"/>
      <path class="cls-6" d="M568.97,52.29l14.89,25.2h-28.96l14.07-25.2M568.97,47.29s-.04,0-.06,0c-1.79.02-3.43,1-4.3,2.56l-14.07,25.2c-.86,1.55-.84,3.44.05,4.97.9,1.53,2.54,2.47,4.31,2.47h28.96c1.8,0,3.45-.96,4.34-2.52.89-1.56.88-3.48-.04-5.02l-14.89-25.2c-.9-1.52-2.54-2.46-4.3-2.46h0Z"/>
    </g>
    <g>
      <path class="cls-7" d="M831.8,160.17c-.94,0-1.8-.53-2.23-1.36l-29.45-57.56v56.42c0,1.38-1.12,2.5-2.5,2.5h-102.16c-1.38,0-2.5-1.12-2.5-2.5v-58.39c0-1.38,1.12-2.5,2.5-2.5h13.77c4.18,0,7.59-3.4,7.59-7.59v-15.27c0-4.22-3.43-7.65-7.65-7.65h-13.71c-1.38,0-2.5-1.12-2.5-2.5V5.05c0-1.38,1.12-2.5,2.5-2.5h87.23c.93,0,1.78.51,2.21,1.33l28.9,54.87V5.05c0-1.38,1.12-2.5,2.5-2.5h103.42c1.38,0,2.5,1.12,2.5,2.5v58.66c0,1.38-1.12,2.5-2.5,2.5h-14.66c-3.77,0-6.84,3.07-6.84,6.84v16.8c0,4.06,3.3,7.36,7.36,7.36h14.14c1.38,0,2.5,1.12,2.5,2.5v57.95c0,1.38-1.12,2.5-2.5,2.5h-87.93ZM829.52,102.02v-27.56c0-4.54-3.7-8.24-8.24-8.24h-3.54l5.19,9.85c3.57,6.31,5.48,13.56,5.48,20.89v5.06h1.11ZM784.66,89.08c0,4.38,3.57,7.95,7.95,7.95h5.02c.12,0,.24,0,.35.02l-6.15-12.02c-1.88-3.67-3.05-7.61-3.5-11.71l-1.38-12.7h-2.29v28.45Z"/>
      <path class="cls-6" d="M919.73,5.05v58.66h-14.66c-5.16,0-9.34,4.18-9.34,9.34v16.8c0,5.44,4.41,9.86,9.86,9.86h14.14v57.95h-87.93l-37.74-73.78c-1.73-3.38-2.83-7.06-3.24-10.84l-1.62-14.93h-7.04v30.95c0,5.77,4.68,10.45,10.45,10.45h5.02v58.15h-102.16v-58.39h13.77c5.57,0,10.09-4.52,10.09-10.09v-15.27c0-5.6-4.54-10.15-10.15-10.15h-13.71V5.05h87.23l38.02,72.18c3.4,6.02,5.19,12.81,5.19,19.73v7.56h6.11v-30.06c0-5.93-4.81-10.74-10.74-10.74h-4.97V5.05h103.42M919.73.05h-103.42c-2.76,0-5,2.24-5,5v43.59l-24.19-45.92c-.86-1.64-2.57-2.67-4.42-2.67h-87.23c-2.76,0-5,2.24-5,5v58.72c0,2.76,2.24,5,5,5h13.71c2.84,0,5.15,2.31,5.15,5.15v15.27c0,2.81-2.28,5.09-5.09,5.09h-13.77c-2.76,0-5,2.24-5,5v58.39c0,2.76,2.24,5,5,5h102.16c2.76,0,5-2.24,5-5v-46.05l24.72,48.32c.85,1.67,2.57,2.72,4.45,2.72h87.93c2.76,0,5-2.24,5-5v-57.95c0-2.76-2.24-5-5-5h-14.14c-2.68,0-4.86-2.18-4.86-4.86v-16.8c0-2.39,1.95-4.34,4.34-4.34h14.66c2.76,0,5-2.24,5-5V5.05c0-2.76-2.24-5-5-5h0ZM825.1,74.83l-3.2-6.08c2.87.31,5.12,2.75,5.12,5.71v4.19c-.58-1.3-1.21-2.57-1.91-3.81h0ZM792.61,94.52c-3,0-5.45-2.44-5.45-5.45v-8.97c.63,2.08,1.44,4.11,2.44,6.06l4.28,8.36h-1.27Z"/>
    </g>
    <g>
      <path class="cls-7" d="M930.31,160.17c-1.38,0-2.5-1.12-2.5-2.5v-58.28c0-1.38,1.12-2.5,2.5-2.5h14.17c4.28,0,7.77-3.49,7.77-7.77v-15.06c0-4.51-3.67-8.18-8.18-8.18h-13.76c-1.38,0-2.5-1.12-2.5-2.5V5.05c0-1.38,1.12-2.5,2.5-2.5h107.78c1.38,0,2.5,1.12,2.5,2.5v57.9c0,1.38-1.12,2.5-2.5,2.5h-9.19c-4.99,0-9.04,4.06-9.04,9.04v13.99c0,4.63,3.77,8.4,8.4,8.4h9.82c1.38,0,2.5,1.12,2.5,2.5v58.28c0,1.38-1.12,2.5-2.5,2.5h-107.78Z"/>
      <path class="cls-6" d="M1038.09,5.05v57.9h-9.19c-6.37,0-11.54,5.17-11.54,11.54v13.99c0,6.02,4.88,10.9,10.9,10.9h9.82v58.28h-107.78v-58.28h14.17c5.67,0,10.27-4.6,10.27-10.27v-15.06c0-5.9-4.78-10.68-10.68-10.68h-13.76V5.05h107.78M1038.09.05h-107.78c-2.76,0-5,2.24-5,5v58.34c0,2.76,2.24,5,5,5h13.76c3.13,0,5.68,2.55,5.68,5.68v15.06c0,2.91-2.36,5.27-5.27,5.27h-14.17c-2.76,0-5,2.24-5,5v58.28c0,2.76,2.24,5,5,5h107.78c2.76,0,5-2.24,5-5v-58.28c0-2.76-2.24-5-5-5h-9.82c-3.26,0-5.9-2.65-5.9-5.9v-13.99c0-3.61,2.93-6.54,6.54-6.54h9.19c2.76,0,5-2.24,5-5V5.05c0-2.76-2.24-5-5-5h0Z"/>
    </g>
    <g>
      <path class="cls-7" d="M1105.12,165.29c-.68,0-1.37,0-2.06-.02-14.47-.29-34.71-3.76-48.97-18.65-8.62-9.01-10.92-17.89-11.01-18.26-.02-.09-.04-.19-.05-.29l-4.55-35.37c-1.29.46-2.94.79-5.02.79-.85,0-1.74-.05-2.66-.16-5.86-.68-11.79-5.67-11.78-13.9,0-8.39,7.03-12.92,13.63-12.92.27,0,.54,0,.81.02,4.43.24,7.86,1.7,10.21,4.35,1.82,2.05,2.57,4.4,2.88,6.15h.8l10.56-8.55c1.24-1.01,2.68-1.74,4.21-2.16h-13.88c-1.38,0-2.5-1.12-2.5-2.5V5.05c0-1.38,1.12-2.5,2.5-2.5h112.64c1.38,0,2.5,1.12,2.5,2.5v58.83c0,1.35-1.07,2.45-2.41,2.5l-15.56.55c-2.32,0-4.75,1-7.12,2.03h21.77c1.38,0,2.5,1.12,2.5,2.5v57.27c0,.18-.02.37-.06.55-.08.37-2.15,9.27-10.33,18.17-7.47,8.14-21.7,17.84-47.04,17.84ZM1086.28,86.42c3.82,1.11,7.28,2.71,10.68,4.28,5.22,2.41,10.16,4.69,16.14,5.11.46.03.91.05,1.35.05,6.71,0,10.28-3.78,12.09-6.95.81-1.42,1.24-3.1,1.24-4.86v-10.57l-19.41,8.32c-7.02,3.01-14.45,4.57-22.08,4.63Z"/>
      <path class="cls-6" d="M1160.87,5.05v58.83l-15.56.55c-3.34,0-6.64,1.65-9.71,2.97l-28.22,12.1c-6.81,2.92-14.15,4.43-21.56,4.43h-20.02v3.9l9.16-.33c.47-.02.92-.03,1.38-.03,14.52,0,22.94,9.88,36.59,10.83.52.04,1.03.05,1.52.05,8.08,0,12.27-4.73,14.26-8.21,1.06-1.85,1.57-3.97,1.57-6.1v-12.58h29.78v57.27s-7.63,34.06-54.93,34.06c-.66,0-1.34,0-2.01-.02-49.09-.98-57.6-35.02-57.6-35.02l-5.05-39.3s-1.53,2.54-7,2.54c-.72,0-1.51-.04-2.37-.14-4.96-.58-9.57-4.83-9.57-11.41,0-6.69,5.48-10.42,11.13-10.42.23,0,.45,0,.68.02,11.59.62,10.92,10.51,10.92,10.51h3.98l11.25-9.11c1.62-1.31,3.63-2.02,5.71-2.02h10.53v-4.58h-27.49V5.05h112.64M1160.87.05h-112.64c-2.76,0-5,2.24-5,5v58.77c0,2.76,2.24,5,5,5h5.28l-5.46,4.42c-.55-1.33-1.35-2.72-2.51-4.02-1.93-2.18-5.57-4.85-11.95-5.19-.32-.02-.63-.03-.95-.03-9.2,0-16.13,6.63-16.13,15.42,0,9.69,7.04,15.57,14,16.38,1.02.12,2.01.18,2.95.18,1.05,0,2.02-.07,2.9-.2l4.19,32.6c.02.19.06.39.11.58.1.4,2.55,9.9,11.63,19.39,8.19,8.56,23.65,18.88,50.72,19.42.71.01,1.42.02,2.11.02,14.49,0,34.73-3.23,48.89-18.65,8.63-9.39,10.84-18.92,10.93-19.32.08-.36.12-.73.12-1.09v-57.27c0-1.33-.52-2.54-1.37-3.44,1.32-.9,2.19-2.42,2.19-4.14V5.05c0-2.76-2.24-5-5-5h0ZM1096.86,87.9c4.27-.8,8.44-2.07,12.48-3.81l15.92-6.82v6.78c0,1.33-.31,2.58-.91,3.62-2.15,3.77-5.49,5.69-9.92,5.69-.38,0-.77-.01-1.17-.04-5.52-.39-10.25-2.57-15.26-4.88-.38-.17-.76-.35-1.14-.53h0Z"/>
    </g>
    <g>
      <path class="cls-7" d="M256.67,373.8c-1.38,0-2.5-1.12-2.5-2.5v-64.04c0-1.38,1.12-2.5,2.5-2.5h45.61v-11.81c-.42.02-.85.02-1.28.02-9.46,0-18.78-3.63-19.17-3.79-.04-.02-.08-.03-.12-.05-.31-.14-30.79-14.01-40.5-16.55-9.63-2.51-28.55-2.75-28.74-2.76-1.37-.02-2.47-1.13-2.47-2.5v-64.15c0-1.38,1.12-2.5,2.5-2.5h120.87c1.38,0,2.5,1.12,2.5,2.5v64.17c0,1.38-1.12,2.5-2.5,2.5h-21.58c4.2.24,10.9,5.26,12.89,6.82.12.09.23.2.33.32l12.34,14.04h3.1c1.35-1.6,4.6-5.38,10.68-12.18,6.46-7.22,13.95-8.81,17.69-9.13v-.12h-23.85c-1.38,0-2.5-1.12-2.5-2.5v-63.93c0-1.38,1.12-2.5,2.5-2.5h120.27c.67,0,1.31.27,1.78.74.47.47.73,1.12.72,1.78l-.65,64.58c0,.69-.3,1.34-.8,1.81-.46.43-1.07.66-1.7.66-.06,0-.12,0-.17,0-2.48-.17-4.97-.26-7.41-.26-27.05,0-42.41,10.71-42.56,10.82-.09.06-.18.12-.28.17-17.38,9.24-29.24,11.5-29.74,11.6-.15.03-.3.04-.46.04h-8.19v6.72l5.3,5.3h40.64c1.38,0,2.5,1.12,2.5,2.5v64.15c0,1.38-1.12,2.5-2.5,2.5h-165.05Z"/>
      <path class="cls-6" d="M465.25,203.19l-.65,64.58c-2.62-.18-5.15-.27-7.58-.27-28.29,0-44.02,11.28-44.02,11.28-17.24,9.16-29.02,11.35-29.02,11.35h-10.69v10.25l6.76,6.76h41.67v64.15h-165.05v-64.04h48.11v-17.02c-1.24.16-2.51.23-3.78.23-9.1,0-18.26-3.61-18.26-3.61,0,0-30.87-14.07-40.91-16.69-10.04-2.62-29.35-2.84-29.35-2.84v-64.15h120.87v64.17h-26.26v4.91l4.34.08c3.68,0,11.7,6.3,11.7,6.3l13.09,14.89h5.4s3.03-3.68,11.37-13.01c6.89-7.71,14.91-8.38,17.48-8.38.54,0,.84.03.84.03v-5.07h-26.35v-63.93h120.27M465.25,198.19h-120.27c-2.76,0-5,2.24-5,5v63.93c0,2.76,2.24,5,5,5h10.05c-1.93,1.32-3.88,2.99-5.76,5.08-5.16,5.77-8.3,9.39-9.97,11.34h-.82l-11.6-13.19c-.2-.23-.43-.44-.67-.63-.89-.7-1.98-1.52-3.19-2.36h10.33c2.76,0,5-2.24,5-5v-64.17c0-2.76-2.24-5-5-5h-120.87c-2.76,0-5,2.24-5,5v64.15c0,2.74,2.2,4.97,4.94,5,.19,0,18.82.24,28.14,2.67,9.5,2.48,39.79,16.26,40.1,16.4.08.04.16.07.24.1.39.16,9.37,3.66,18.87,3.94v6.81h-43.11c-2.76,0-5,2.24-5,5v64.04c0,2.76,2.24,5,5,5h165.05c2.76,0,5-2.24,5-5v-64.15c0-2.76-2.24-5-5-5h-39.6l-3.83-3.83v-3.18h5.69c.31,0,.61-.03.91-.08.51-.09,12.74-2.43,30.45-11.85.2-.1.39-.22.57-.35.13-.09,14.97-10.35,41.1-10.35,2.38,0,4.81.09,7.24.25.12,0,.23.01.35.01,1.25,0,2.47-.47,3.39-1.33,1.01-.93,1.59-2.24,1.61-3.62l.65-64.58c.01-1.33-.51-2.62-1.45-3.57-.94-.95-2.22-1.48-3.55-1.48h0ZM465.25,208.19h0,0Z"/>
    </g>
    <g>
      <path class="cls-7" d="M830.14,377.71c-19.43,0-38.36-3.51-57.87-10.72-14.98-5.54-34.61-16.49-43.03-37.18-5.09-12.5-3.64-22.56-3.57-22.98,0-.04,5.35-27.03,5.35-27.03.45-2.29.04-4.64-1.17-6.64-1.02-1.68-2.87-2.73-4.83-2.73h-18.31c-1.38,0-2.5-1.12-2.5-2.5v-65.13c0-1.38,1.12-2.5,2.5-2.5h117.65c1.37,0,2.49,1.1,2.5,2.48l.6,64.31c0,.69-.27,1.36-.78,1.83-.47.44-1.08.69-1.72.69-.05,0-.1,0-.15,0-1.13-.07-2.46-.14-3.86-.14-9.47,0-14.15,3.32-15.19,10.76-1,7.19.52,10.25,1.99,13.21l.3.62c1.85,3.78,8.74,10.4,22.86,11.26.43.03.86.04,1.29.04,6.34,0,12.44-2.8,16.04-5.42l.41-.3c2.94-2.12,7.39-5.32,7.44-16.07.02-4.46-1.14-7.89-3.46-10.22-3.21-3.23-8.11-3.9-11.65-3.9-2.08,0-3.53.24-3.55.25-.14.02-.28.04-.42.04-.59,0-1.16-.21-1.61-.59-.56-.47-.89-1.17-.89-1.91v-64.42c0-1.38,1.12-2.5,2.5-2.5h117.82c1.38,0,2.5,1.12,2.5,2.5v56.56c0,1.38-1.12,2.5-2.5,2.5h-15.89c-2.1,0-4.02,1.23-4.9,3.14-.78,1.69-1.1,3.56-.94,5.41l3.28,38.48c.01.14.01.28,0,.42-1.47,17.17-7.38,31.27-17.57,41.9-8.54,8.91-20.12,15.24-33.51,18.3-1.57.36-3.19.74-4.88,1.14-13.29,3.14-29.84,7.04-50.27,7.04Z"/>
      <path class="cls-6" d="M954.83,202.81v56.56h-15.89c-3.08,0-5.88,1.8-7.17,4.6-.96,2.08-1.36,4.38-1.16,6.67l3.28,38.48c-3.05,35.78-25.58,52.58-49.15,57.98-13.64,3.13-31.83,8.11-54.6,8.11-16.57,0-35.57-2.64-57-10.57-50.89-18.82-45-57.44-45-57.44l5.33-26.92c.57-2.89.04-5.89-1.48-8.42-1.47-2.44-4.12-3.93-6.97-3.93h-18.31v-65.13h117.65l.6,64.31c-1.16-.07-2.53-.14-4-.14-6.88,0-16.09,1.61-17.66,12.91-1.18,8.46.89,11.94,2.52,15.27,2.56,5.24,10.69,11.78,24.95,12.65.48.03.96.04,1.44.04,7.1,0,13.71-3.14,17.52-5.9,2.99-2.18,8.82-5.82,8.87-18.37.06-14.63-11.36-16.63-17.61-16.63-2.35,0-3.97.28-3.97.28v-64.42h117.82M954.83,197.81h-117.82c-2.76,0-5,2.24-5,5v64.42c0,1.48.65,2.88,1.78,3.83.91.76,2.05,1.17,3.22,1.17.29,0,.57-.02.86-.07h0s1.28-.21,3.11-.21c2.51,0,7.14.41,9.88,3.17,1.83,1.83,2.74,4.67,2.73,8.44-.04,9.47-3.71,12.12-6.4,14.05l-.42.3c-3.28,2.39-8.83,4.95-14.57,4.95-.38,0-.76-.01-1.14-.03-12.97-.79-19.16-6.57-20.77-9.86l-.31-.63c-1.42-2.86-2.64-5.33-1.75-11.75.85-6.11,4.53-8.6,12.71-8.6,1.33,0,2.56.07,3.71.13.1,0,.2,0,.3,0,1.28,0,2.51-.49,3.45-1.38,1-.96,1.57-2.28,1.55-3.67l-.6-64.31c-.03-2.74-2.26-4.95-5-4.95h-117.65c-2.76,0-5,2.24-5,5v65.13c0,2.76,2.24,5,5,5h18.31c1.09,0,2.13.58,2.69,1.52.88,1.46,1.19,3.19.85,4.86l-5.33,26.92c-.01.07-.03.14-.04.22-.07.45-1.62,11.17,3.73,24.3,8.77,21.53,29.03,32.87,44.48,38.58,19.8,7.32,39.01,10.88,58.74,10.88,20.73,0,37.43-3.94,50.85-7.1,1.68-.4,3.3-.78,4.87-1.14,13.86-3.18,25.88-9.75,34.76-19.01,10.6-11.06,16.74-25.66,18.25-43.42.02-.28.02-.57,0-.85l-3.28-38.48c-.12-1.42.13-2.86.73-4.15.47-1.02,1.5-1.69,2.63-1.69h15.89c2.76,0,5-2.24,5-5v-56.56c0-2.76-2.24-5-5-5h0Z"/>
    </g>
    <g class="cls-8">
      <g class="cls-10">
        <g>
          <path class="cls-5" d="M665.64,308.26c.31-.77.48-1.58.47-2.44.37-.78.55-1.6.54-2.48.44-.93.67-1.95.63-3.02-.03-.74-.17-1.47-.39-2.15.02-.13.04-.25.06-.38.19-1.11.18-2.27-.03-3.37.52-5.43.85-10.87.97-16.32.03-1.14-.27-2.26-.79-3.27.17-2.31.19-4.63.14-6.96-.03-1.4-.48-2.79-1.24-3.97-.06-1.12-.14-2.23-.24-3.34-.11-1.11-.42-2.22-.91-3.22-.16-1.46-.26-2.92-.08-4.31.17-1.33-.5-3-1.35-4.24-.31-2.33-.67-4.65-1.18-6.95-.27-1.24-.96-2.35-1.88-3.24-.08-.42-.21-.84-.39-1.23-.15-.6-.36-1.18-.64-1.72-.19-.92-.53-1.79-1.01-2.57-.19-.61-.45-1.2-.78-1.74.05-.37.08-.76.06-1.15-.11-2.49-1.34-4.74-3.25-6.09-.42-1.25-1.08-2.42-1.97-3.34-.07-2.3-1.71-4.45-3.78-5.66-.76-1.14-1.68-2.19-2.65-3.21-.53-.56-1.08-1.09-1.68-1.59-.11-.08-.21-.17-.32-.25-.25-.19-.47-.36-.65-.51-.23-.29-.61-.53-.87-.8-.48-.5-1.03-.91-1.63-1.23-3.42-2.93-7.21-5.45-11.26-7.4-.89-.43-1.81-.7-2.72-.83-1.73-.86-3.52-1.6-5.38-2.2-.54-.17-1.1-.26-1.66-.28-1.12-.36-2.26-.63-3.42-.86-1-.58-2.12-1.01-3.24-1.25-1.28-.28-2.64-.23-3.91.11-.41-.07-.83-.12-1.26-.12h-3.22c-.16,0-.32,0-.48.02-.53-.13-1.09-.2-1.67-.2-.84,0-1.68.17-2.47.47-.63-.18-1.3-.29-2.01-.29-.57,0-1.14.08-1.69.23-.97-.5-2.07-.79-3.27-.79-.29,0-.57.02-.86.06-.64-.45-1.36-.84-2.15-1.14-3.79-1.43-8.3-1.52-12.31-1.89-3.74-.34-7.52-.52-11.27-.18-2.95.26-5.75.79-8.44,1.58-.45.04-.9.13-1.35.28-4.62,1.51-9.12,3.32-13.56,5.3-.98.44-1.76,1.17-2.35,2.06-3.09,1.74-5.82,3.86-8.09,6.9-2.49,1.99-4.84,4.15-7.06,6.49-.49.51-.9,1.1-1.22,1.73-1.28.59-2.39,1.55-3.13,2.89-1.2,2.2-2.49,4.35-3.87,6.45-.38.57-.64,1.2-.8,1.86-.39.48-.72,1.01-.98,1.57-.03.04-.06.08-.08.12-.06.09-.11.18-.17.27-.11.17-.2.34-.28.52-.24.31-.46.63-.64.87-.06.08-.12.17-.17.26-.54.85-.83,1.76-.88,2.75-.02.11-.04.21-.06.32-.42.73-.81,1.51-1.16,2.34-.19.44-.3.91-.35,1.38-.45,1.22-.81,2.49-1.19,3.72-.71,2.34-1.54,4.67-1.93,7.1-.38,2.4-.06,4.73-1.12,6.69-.68,1.26-.84,2.7-.52,4.01-.51.83-.81,1.77-.81,2.77,0,.83.24,1.77.66,2.57-.16.87-.12,1.77.1,2.62-.12.65-.12,1.33.03,2.01,0,.09,0,.19-.01.28-.02.3-.09.62-.11.93-.01.08-.02.15-.04.23-.06.37-.14.73-.21,1.09-.26,1.27-.1,2.63.44,3.8-.23.48-.36.99-.38,1.52-.16.71-.13,1.42.1,2.13.07.31.18.6.32.88-.36,6.63.7,13.2,1.15,19.8-.07.35-.12.7-.12,1.07v.13c-.01.3.02.59.06.87-.01.23-.02.45,0,.68-.6,1.39-.64,3.03-.1,4.45-.2.58-.35,1.17-.43,1.79-.1.76-.17,1.47-.1,2.15-.4,1.04-.5,2.22-.24,3.39.12.55-.36,2.85-.45,3.92-.14,1.73-.2,3.46-.21,5.19,0,.66.1,1.25.28,1.78-.71,4.1-.97,8.25-1.28,12.39-.03.34,0,.67.05.99-.1.31-.2.62-.3.92-.35,1.09-.25,2.24.16,3.27-.13.45-.21.92-.23,1.4-.02.65-.07,1.3-.12,1.94-.46.55-.79,1.2-.94,1.93-.94,4.8-1.56,9.82-3.04,14.5-.52,1.63-1.16,3.18-1.62,4.81-.68.45-1.23,1.03-1.65,1.74-.02.04-.05.09-.07.13-.24.38-.4.77-.51,1.19-1.1.84-2.15,1.74-3.12,2.74-.7.73-1.21,1.66-1.43,2.65-.22.16-.43.33-.62.54-.12.11-.22.22-.33.34-3.51.92-3.41,6.58.32,7.2,0,0,0,0,0,0,.36.28.72.56,1.08.83.22.13.44.23.66.33.91,1.15,2.66,1.63,4.08,1.43.29-.04.6,0,.91.05.68.65,1.62,1.05,2.64,1.16.24.03.48.05.73.07.54.38,1.23.61,2.07.61.33,0,.63-.04.91-.1.08.03.16.07.23.09.06.02.12.04.18.05.03,0,.05.01.08.01.31.05.71.11,1.02.14.06,0,.12,0,.19,0,.03,0,.05,0,.08,0,.16.07.32.13.49.18,1.29.35,2.6.54,3.93.67.31.03.66-.02.99-.13.46.22,1,.35,1.63.35.31,0,.6-.04.87-.1.05,0,.09,0,.14,0,.54-.04,1.07-.09,1.61-.13.24.04.49.08.74.11.54.06,1.06-.07,1.55-.31.38-.03.75-.07,1.13-.11.56.42,1.28.67,2.16.67.53,0,1-.1,1.41-.26-.21.61-.32,1.27-.5,2.01-.39,1.66-.82,3.32-1.2,4.99-.77,3.41-1.34,6.86-1.36,10.37,0,1.22.72,1.97,1.62,2.25,0,.1-.01.19-.02.29-.22.23-.41.51-.55.85-.62,1.55-.13,3.34-.24,4.98-.06.91-.28,1.78-.36,2.69-.08.95.07,1.86.08,2.81,0,.22.04.42.08.61-.12.2-.21.42-.24.66-.27,1.84-.44,3.66-.43,5.52.01,2.12,2.23,2.83,3.69,2.1,3.74.41,7.47.44,11.22.09,3.13-.29,3.16-5.22,0-4.93-.23.02-.47.04-.7.06.65-.84,1.07-1.94,1.08-3.3.02-2.27,1.22-4.77,1.47-7.16.26-2.46-.07-4.87-.22-7.32-.28-4.59,1.45-8.22,3.61-12.29,1.41-2.64.67-6.03-1.99-7.58-.19-.11-.4-.21-.61-.3.03-.07.06-.13.08-.21.88-2.77,1.08-5.64,1.31-8.52.12-.05.23-.11.34-.18,1.58-.92,2.52-3.45,1.33-5.06-1.12-1.5-1.95-3.13-2.61-4.82.93,1.33,1.76,2.74,2.44,4.26,1.73,3.85,7.92,1.11,6.75-2.85-.79-2.68-1.8-5.29-3-7.82,1.77,1.23,3.53,2.46,5.43,3.51.29.16.57.27.86.35.03.05.06.1.09.16,0,0,0,0,0,.01-.72,1.29-1.4,2.6-2.03,3.94-1.03,2.2.17,4.76,2.14,5.44.72,1.95,1.82,3.82,3.2,5.56,1.76,2.22,4.06,3.27,6.57,3.87-.08,2.52.1,5.16,2.2,6.77,1.15.89,2.34,1.17,3.5,1.06-3.19,6.3-6.07,12.77-8.52,19.46-1.25,3.43,3.82,6.34,6.18,3.6,5.47-6.37,10.28-13.21,14.41-20.42,1.21,1.75,3.81,2.57,5.62.64.82-.88,1.64-1.76,2.46-2.64.52,1.45,1.73,2.54,3.43,2.54s3.5-1.39,3.69-3.14c4.11-3.16,7.88-6.63,11.41-10.33.66.46,1.4.82,2.24,1.01,1.69.38,3.29.24,4.69-.34-.78,7.89.21,15.89,3.06,23.34.71,1.84,2.63,2.82,4.31,2.41.06,2.79.74,5.38,1.94,7.89.28.58.75,1.01,1.3,1.3-.08.75-.17,1.49-.26,2.24-.06.49.04.96.24,1.39-.05.07-.11.16-.15.25-.04.1-.08.2-.12.3,0,0,0,0,0,0,0,0,0,.01,0,.02-.44,1.11-.59,2.27-.45,3.39-.06.59-.11,1.18-.14,1.78,0,.04,0,.07,0,.1-.6-.17-1.29.05-1.48.83-.02.06-.03.13-.05.19-.18.72.36,1.63,1.19,1.56.42-.04.84-.02,1.25,0,.42.4,1.14.55,1.68.16.27.02.53.04.8.04,1.03,0,2.03-.09,3.06-.05.56.51,1.29.82,2.17.78.39-.02.8-.11,1.19-.27.25.14.55.24.91.24,1.74,0,2.2-1.97,1.4-3.04,0-.14,0-.28-.01-.43-.05-.45-.09-.9-.08-1.35,0-.12.06-.82.02-.63.13-.85.31-1.68.38-2.54.06-.7-.18-1.39-.6-1.97.15-.99.3-1.98.47-2.96.19-1.15-.04-2.32-.72-3.17.21-1.91.42-3.83.62-5.74.04-.39-.01-.77-.14-1.12,1.91-1.25,2.11-3.8,1.27-6.09,0-.04,0-.08,0-.13-.09-.86-.11-1.81-.32-2.65,0-.02-.17-.55-.34-.96.05-.89-.36-1.76-1-2.4-.06-.35-.11-.69-.16-1.04.76.27,1.57.43,2.44.43.38,0,.75-.04,1.12-.1.32-.02.63-.07.94-.13.67.21,1.39.32,2.15.32,1.31,0,2.6-.39,3.72-1.06.03,0,.06-.02.09-.03.53.12,1.08.19,1.65.19.73,0,1.45-.12,2.14-.34.32.04.65.07.99.07,2.43,0,4.8-1.35,6.17-3.35,1.64-.3,3.17-1.19,4.29-2.42.56-.24,1.12-.47,1.68-.71,1.11-.66,1.99-1.54,2.65-2.65l.09-.18c.27-.42.48-.87.62-1.33.08-.03.17-.07.24-.11,3.09-.34,2.98-5.32-.34-5.32,0,0-.01,0-.02,0-.05-.01-.09-.03-.15-.04-.22-.47-.5-.89-.84-1.29-.22-.47-.48-.91-.78-1.32-.02-.04-.04-.09-.06-.13-.15-.46-.35-.88-.6-1.28.07-.41.09-.83.07-1.25-.05-1.06-.3-2.07-.72-2.99,0-.02,0-.04,0-.06-.04-1-.27-1.96-.64-2.83.01-.27.03-.53.05-.8.03-.1.07-.2.1-.31.05-.31.09-.63.14-.94.08-.25.13-.5.18-.76.14-.68.15-1.35.03-2.03-.02-.13-.04-.25-.06-.37-.04-.64-.19-1.25-.44-1.83.43-.95.65-1.95.65-3.02.1-.95.12-1.91.08-2.87-.02-.46-.08-.91-.16-1.36.23-.95.28-1.9.15-2.85.01-.04.02-.07.03-.11.7-1.62.96-3.36.48-5.12-.06-.23-.15-.47-.24-.71.28-.92.31-1.9.15-2.85.05-.18.09-.36.13-.55.75-4.36,1.32-8.75,1.66-13.16.03-.37.02-.73-.03-1.1.41-.94.64-1.95.77-3.1.23-1.89.38-3.78.45-5.68.06-.34.11-.69.13-1.04.09-1.35.21-2.69.35-4.04.19-.66.29-1.35.26-2.06,0-.03,0-.06,0-.09.02-.12.03-.24.04-.37.02-.15.03-.31.02-.48ZM566.11,306.9c-2.21-.28-4.41-.58-6.59-1.05-3.09-.67-5.81-1.77-8.26-3.42,2.45-3.4,4.97-6.76,7.54-10.07,1.04-.84,2.41.74,3.7.89.46.05.91.09,1.37.14,1.01.85,2.19,1.38,3.47,1.38-.61,4.02-1.02,8.08-1.23,12.14ZM604.07,306.71c-.49.22-.93.51-1.32.86-1.78-.41-3.56-.86-5.32-1.35-1.5-.42-2.99-.87-4.47-1.35-.02,0-.05-.01-.08-.02-.54-1.23-1.41-2.34-2.45-3.16,0-.15.01-.29,0-.44-.09-2.19-.29-4.37-.71-6.51.22.02.45.02.68.01.65-.09,1.31-.18,1.96-.26,1.13-.32,2.12-.87,2.98-1.64,1.08-.19,2.11-.63,3.01-1.25.03,0,.06-.02.09-.03.97.49,2.06.77,3.24.77.14,0,.27-.01.41-.02.5,2.07,1.16,4.14,1.83,6.27.75,2.35,1.21,4.73,1.7,7.14.01.08.02.14.03.19-.52.28-1.05.55-1.6.8Z"/>
          <path class="cls-4" d="M559.76,292.15c-3.43,0-3.44,5.34,0,5.34s3.44-5.34,0-5.34Z"/>
          <path class="cls-4" d="M598.66,292.08c-3.43,0-3.44,5.34,0,5.34s3.44-5.34,0-5.34Z"/>
          <path class="cls-3" d="M598.6,291.51c-5.02,0-9.08,4.07-9.08,9.08s4.07,9.08,9.08,9.08,9.08-4.07,9.08-9.08-4.07-9.08-9.08-9.08ZM598.6,296.21c-1.04,0-1.88-.84-1.88-1.88s.84-1.88,1.88-1.88,1.88.84,1.88,1.88-.84,1.88-1.88,1.88Z"/>
          <path class="cls-3" d="M559.84,291.51c-5.02,0-9.08,4.07-9.08,9.08s4.07,9.08,9.08,9.08,9.08-4.07,9.08-9.08-4.07-9.08-9.08-9.08ZM559.84,296.21c-1.04,0-1.88-.84-1.88-1.88s.84-1.88,1.88-1.88,1.88.84,1.88,1.88-.84,1.88-1.88,1.88Z"/>
          <path class="cls-9" d="M614.77,250.77c1.46,6.42,4.5,19.54,8.98,26.95,2.21,3.66,1.91,3.18,2.76,4.83,1.49,2.87,4.14,7.44,8.09,12.29,1.82,2.23,3.1,4.86,3.67,7.68v.05s4.47,16.37-.19,24.05c-.19.31-1.31,2.12-1.53,2.4-1.51,1.88-7.16,13.09-29.45,18.3,0,0-19.81,4.06-32.34,3.09-38.87-2.99-50.88-16.83-53.54-20.74-5.01-7.37-4.38-20.61-1.13-25.79,2.14-3.41,1.54-13.46,1.25-17.04-.06-.73.32-1.44.98-1.78,3.54-1.83,15.19-9.6,27.51-37.07,13.97-31.15,33.66-23.3,35.76-22.31.12.06.25.06.38.02,1.81-.62,15.79-4.39,26.04,17,1.23,2.57,2.14,5.28,2.77,8.05Z"/>
          <path class="cls-9" d="M519.12,284.72c6.3-2.13,21.61-21.82,33-45.81,11.39-23.99,33.92-13.78,33.92-13.78,0,0-10.98-12.34-26.49.57-14.05,11.69-17.06,26.09-23.29,36.1-1.85,2.97-5.81,8.26-7.13,9.73-4.98,5.52-18.53,14.93-14.11,12.25-.98.6-.23.38,0,0,.55-.27,4.09.96,4.1.96Z"/>
          <path class="cls-9" d="M521.42,286.17s-5.86-5.13-10.18.24c-4.32,5.37-2.83,12.28-2.83,12.28,0,0,1.52,7.23,9.61,11.29"/>
          <path class="cls-9" d="M585.69,225.71s.42.27,1.83-2.48c0,0-8.5-7.61-22.88-5.27,0,0-7.03,1.13-13.49,10.74,0,0-9.51,15.32-13.96,26.2-1.12,2.74-2.61,5.3-4.44,7.63-3.77,4.81-10.34,12.31-16.99,15.69-10.18,5.17-8.48,12.43-8,18.74s-1.88,46.56-3.57,51.83c-.08.26-1.5,7.81-1.55,8.07-.51,2.65-3.04,12.86-12.27,20.44-1.91,1.57-1.34,4.66,1.02,5.37.1.03.21.06.32.09.7.17,1.28.62,1.67,1.22.64.97,2.16,2.29,5.68,2.32.6,0,1.18.17,1.68.5.85.56,2.5,1.34,4.9,1.13.55-.05,1.1.05,1.6.28.94.43,2.85,1,5.88.59.49-.07.98-.02,1.45.15.76.28,2.26.6,4.61.13.37-.07.74-.1,1.11-.04.81.12,2.44.27,3.57-.25,1.57-.73,5.24-16.84,22.26-27.02.05-.03.1-.06.15-.09.86-.46,8.74-4.67,14.27-5.77,1.51-.3,2.59-1.62,2.55-3.15l-.09-3.67"/>
          <path class="cls-9" d="M587.53,223.24c.3-.76.55-1.57,1.02-2.26.51-.76.88-1.61,1.03-2.51s.43-1.95.96-2.57c.31-.36.5-.79.53-1.26.05-.8.27-2.12,1.04-3.76.23-.49.37-1.02.41-1.56.08-.88.33-2.39,1.15-3.95.25-.48.41-1.01.45-1.56.05-.89.25-2.35.93-3.54.4-.7.64-1.48.65-2.29.01-.97.22-2.31,1.07-3.41,0,0-15.92-3.03-32.58.7-13.08,2.93-24.05,10.21-31.22,21.53-.47.74-3.77,5.89-4.23,6.62-6.26,10-15.25,15.81-17.79,18.01-1.72,1.48-3.27,13.37-3.84,16.32"/>
          <path class="cls-9" d="M563.09,218.42c14.47-7.14,26.09,1.39,26.09,1.39,0,0,24.89-1,31.68,30.18s17.61,46.05,21.17,50.09,3.72,4.85,2.75,6.3-4.84,5.28-4.84,5.28"/>
          <path class="cls-9" d="M507.5,293.82c-.91-9.09-.41-14.59-.41-14.59,4.95-2.65,12.76-9.53,15.76-12.43.5-.49,4.82-4.87,6.46-6.61,3.73-3.96,8.66-13.81,10.95-18.6,1.65-3.45,3.56-6.77,5.75-9.91,4.34-6.2,11.55-14.69,20.39-18.23,14.7-5.9,24.15,2.45,24.15,2.45,0,0,12.06-2.12,22,9.68,0,0,10.97,13.03,13.33,24.2s7.71,24.55,9.34,28.52c.3.72.62,1.42.97,2.11,1.93,3.75,8.85,17.18,9.92,19.25,1.9,3.68-1.33,6.72-1.33,6.72"/>
          <path class="cls-9" d="M506.98,285.77c-.29-4.29.02-8.89.16-11.37.07-1.15.5-2.25,1.25-3.11,1.85-2.14,5.36-4.19,9.17-7.6,4.88-4.36,12.9-13.15,17.37-21.69,5.13-9.81,3.46-12.77,16.96-26.43,18-18.19,40.63-6.26,40.63-6.26,0,0,25.26-3.14,33.22,20.11.24.7.48,1.39.75,2.08,1.39,3.47,6.08,15.64,6.98,23.78.35,3.2.78,6.4,1.44,9.55.72,3.41,1.72,7.44,2.95,10.66,2.67,6.98,9.57,17.45,8.24,24.16"/>
          <path class="cls-9" d="M506.96,279.43c-.32-2.46-.66-11.87.5-14.72s12.91-5.88,21.29-23.23c8.43-17.45,17.29-28.27,17.29-28.27,19.87-21,48.09-9.41,48.09-9.41,0,0,26.18,1.91,36.07,23.73.54,1.2,1.52,3.12,2.15,4.28,1.64,3.05,5.19,14.31,5.23,26.58,0,1.27.05,2.53.21,3.79.33,2.66,1.05,7.34,2.43,11.09s5.45,18.59,5.75,21.72"/>
          <path class="cls-9" d="M509.34,245.61c1.83-9.83,6.5-26.64,30.9-45,24.4-18.36,56.54-6.05,56.54-6.05,0,0,40.38,3.21,51.04,31.01,7.56,19.72,9.19,48.14,9.5,62.99.12,5.86-.28,11.72-1.18,17.51-1.71,11.01-3.26,19.01-3.95,33.38-.14,2.93-.07,5.86.21,8.77.87,9.2,3.45,29.32,9.97,36.82,0,0-2.34,4.16-8.04,5.23-1.98.37-1.74-1.58-3.31-7.5-.43-1.6-1.23-4.68-2.48-8.72-1.36-4.37-2.7-9.16-2.96-11.71-.44-4.22-.48-5.87-.51-7.41,0-.4-.13-3.16-.17-3.96-.42-8.46.36-9.49,1.98-14.82.49-1.63,3.34-12.87,3.71-15.28,1.06-6.98,1.82-20.46-.6-30.2-.79-3.16-1.46-8.24-1.91-12.24-.32-2.83-.46-5.67-.31-8.51.39-7.29-2.21-21.01-3.76-28.37-.85-4.05-2.21-7.98-4.05-11.69-3.07-6.16-8.54-15.32-16.49-21.94-13.09-10.91-27.91-8.8-27.91-8.8,0,0-16.33-6.47-32.45,0-16.12,6.47-22.85,12.22-30.42,24.13-2.1,3.3-3.99,8.78-6.25,13.18-2.6,5.05-5.64,9.35-10.09,12.88-4.08,3.24-8.29,5.44-9.21,8.44-1.65,5.33-.33,17.75-.33,17.75"/>
          <path class="cls-9" d="M596.78,194.56s40.52-5.79,58.78,31.01c18.26,36.8,10.66,82.52,10.66,82.52,0,0-6.83,46.63-4.68,59.94.12.75,1.01,4.74,1.24,5.47.64,2.06,2,4.19,3.92,4.87,2.75.97-4.34,6.67-4.34,6.67"/>
          <path class="cls-9" d="M511.13,304.22s.13,27.14-.58,38.36c-.09,1.4-.25,2.79-.47,4.18-.44,2.71-1.34,8.26-2.04,12.67-1,6.34-8.15,19.21-10.07,20.84-1.09.93-4.56,2.58-4.58,3.71"/>
          <path class="cls-9" d="M514.48,307.71v37c0,1.74-.1,3.48-.31,5.2-.82,6.78-3.03,24.66-3.74,27.52-1.53,6.22-2.23,7.28-5.96,10.52"/>
          <path class="cls-9" d="M519.64,326.75s-.59,10.63-.53,22.24c.09,15.87-4.14,39.01-8.73,39.93"/>
          <path class="cls-9" d="M527.02,335.64s2.1,23.93-.52,34.85c-.2.84-.39,1.68-.53,2.54-.5,3.17-2.22,11.64-6.77,16.05"/>
          <path class="cls-9" d="M532.28,339.21s.8,1.69.47,7.49-.3,6.66-.38,8.71c-.15,3.87-.65,6.94-1.02,8.89-2.13,11.05-2.77,14.24-4.69,19.26"/>
          <path class="cls-9" d="M538.38,342.31s1.72,10.01,0,17.93c-.91,4.19-1.38,8.61-1.38,8.61"/>
          <path class="cls-9" d="M544.58,344.72s.94,11.21.37,17.64"/>
          <path class="cls-9" d="M550.32,346.46s1.58,11.65.53,12.96"/>
          <path class="cls-9" d="M554.65,347.84s1.79,7.4.61,9.7"/>
          <path class="cls-9" d="M559.84,348.56s1.48,5.12,0,7.51"/>
          <path class="cls-9" d="M646.27,304.1s.48,13.84-4.14,25.74c-3.25,8.38-3.88,17.36-4.28,23.03-.24,3.36-.62,6.05-.79,8.13-.43,5.06-.41,13,1.09,17.78.39,1.25.8,2.49,1.1,3.76.81,3.39,2.54,9.35,4.82,10.43,3.21,1.51,10.02-1.03,10.25-2.7"/>
          <path class="cls-9" d="M631.73,335.01s-.47,11.19-.99,15.01c-.14,1.03-.26,1.97-.36,2.85-.66,5.61-.48,11.29.52,16.85.61,3.38,1.48,7.39,2.58,10.27.82,2.15,1.48,4.36,2.02,6.59.67,2.76,1.58,5.97,2.37,6.86,1.45,1.64,5.98.59,6.2-.46"/>
          <path class="cls-9" d="M619.84,343.05s3.4,17.32,6.04,28c.91,3.68,2.16,7.26,3.71,10.72,1.64,3.64,3.9,8.92,4.45,11.37.17.76.79,1.32,1.57,1.4,1.13.11,2.46,0,2.28-1.1"/>
          <path class="cls-9" d="M612.28,363.12c-.57-1.7-.53-17.03-.53-17.03"/>
          <path class="cls-9" d="M607.11,347.33s-1.86,8.93-.89,11.75"/>
          <path class="cls-9" d="M602.42,348.56s-.81,7.37-1.37,8.68"/>
          <path class="cls-9" d="M596.78,349.08s1.03,5.94-.03,6.99"/>
          <path class="cls-9" d="M616.01,366.35l1.56,23.78c.22,3.43.57,7.79,1.52,11.09,1.47,5.09,2,6.91,2,6.91l11.2-.4s2.29.16,3.99-2.02-3.8-17.14-6.69-23.93c-1.84-4.32-8.36-10.7-12.85-14.77-.25-.23-.49-.44-.73-.65-2.18-1.95-3.73-3.22-3.73-3.22-6.62-6.22-20.52-8-20.52-8-.24-1.13,0-5.4,0-5.4"/>
          <path class="cls-9" d="M523.89,388.78s-4.76,16.75-2.49,19.34,13.75,2.01,13.75,2.01c0,0-.6-8.65,1.86-13.53.87-1.72,1.3-3.63,1.25-5.57-.16-6.54-.16-20.34,2.38-25.43"/>
          <path class="cls-9" d="M563.09,353.26s-.14,10.46,6.21,12.68c.74.26,1.71.59,2.24.7,1.47.3,5.79.76,9.13.62,2.78-.12,5.4-1.29,7.31-3.31,2.04-2.14,3.62-5.48,3.68-10.27"/>
          <path class="cls-9" d="M552.77,358.55l1.14,21.61s8.6,6.06,24.17,6c15.57-.06,24.54-5.39,24.54-5.39l1.45-22.46"/>
          <path class="cls-9" d="M512.31,289.89s6.6,7.04,7.78,14"/>
          <path class="cls-9" d="M563.53,275.99s3.07-3.14,6.95-.03"/>
          <path class="cls-9" d="M586.04,275.99s3.07-3.14,6.95-.03"/>
          <path class="cls-9" d="M575.54,302s3.07-3.14,6.95-.03"/>
          <ellipse class="cls-1" cx="590.76" cy="290.42" rx="4.09" ry="7.78"/>
          <path class="cls-9" d="M574.32,323.47h8.65c.66,0,1.12-.67.86-1.28-.78-1.84-3.16-5.14-4.95-5.14-2.21,0-4.3,3.44-5.25,5.3-.26.51.11,1.12.69,1.12Z"/>
          <path class="cls-9" d="M574.9,329.04s4.11.97,7.92,0"/>
          <ellipse class="cls-1" cx="567.62" cy="290.42" rx="4.09" ry="7.78"/>
          <path class="cls-1" d="M623.25,426.55c-.4-2.77-.57-5.56-.56-8.35,0-.39.06-.72-.08-1,.03-.17.1-.19.13-.36.11-.56.15-1.25-.1-1.75.06-1.56-.43-3.73-.65-5.28.6-1.54-.91-1.7-1.05-2.2-.05-.06-.13-.31-.2-.37.02-.46-.16-.94-.39-1.34-.12-.9-.46-1.56-.72-2.44-.11-.37-.23-1.1-.49-1.36-.57-3.29-1-6.02-1.54-9.31.06-.34-.02-.7-.1-1.04.09-.23.02-.6.02-.86v-.08c.01-.3,0-.54-.13-.8,0-.07-.03-.18-.03-.25v-.08c.01-.29.15-.27.03-.52-.01-.16.06-.41,0-.56.16-.56.02-1.25-.23-1.77.06-.29.12-.54.08-.83.08-.45,0-.93-.17-1.35,0-.04-.03-.18-.03-.22l.03-.1c0-.08-.01.02-.02-.06,0-.05,0-.11,0-.17l.04-.19c0-.2-.06-.39-.12-.58,0-.02-.04-.06-.04-.08,0-.03.14,0,.14-.03l-.12-.23c0-.08.06.04.05-.04,0-.05-.04-.37-.04-.43l.05-.33c0-.07-.05-.22-.06-.29,0-.04-.08-.15-.08-.19l-.07-.19c0-.16.05-.28.02-.43.02-.11-.02-.26-.02-.38v-.08c.01-.28.13-.38.02-.63l-.06-.23c.01-.27.09-.4-.02-.64.08-.37-.06-.79-.14-1.15.08-.34-.02-.8-.09-1.14.12-.28.21-.58.21-.89v-.08c.01-.31-.05-.59-.19-.86-.07-.2.04-.41-.1-.57.03-.5-.15-.98-.09-1.48.03-.26-.01-.5-.1-.74-.04-1.12-.09-2.24-.18-3.36,0,0,0,0,0,0-.01-.19-.03-.39-.07-.59-.03-.14.02-.25-.03-.37.33-1.33-.35-2.19-1.36-2.58-.19-.62-.65-1.08-1.44-1.33-.16-.05-.26-.21-.41-.27-.1-.12-.05-.35-.23-.37-.06-.2-.22-.29-.44-.37-.02-.03-.03-.02-.05-.04-.03-.03,0-.04-.03-.07-.07-.07-.08-.16-.17-.19-.04-.02-.2-.02-.25-.03-.05-.11-.2-.17-.31-.25l-.09-.03c0-.1-.07-.11-.12-.2-.03-.09-.08-.17-.15-.24-.07-.07-.15-.12-.24-.15-.09-.05-.18-.07-.29-.06-.07,0-.11-.1-.17-.09-.06.02-.1-.17-.15-.14-.2-.15-.38-.23-.59-.37-.47-.31-.9-.6-1.39-.86-.38-.21-.95-.2-1.12-.62-.08-.19-.24-.31-.46-.26-.1.03-.08-.18-.13-.08-.23-.18-.23-.19-.6-.19-.01,0-.24-.02-.25-.02.02-.09-.16,0-.21-.07-.02-.02-.04-.05-.06-.07-.05-.05-.1-.08-.16-.1-.26-.11-.53-.21-.79-.32-.03,0-.07,0-.1-.01-.03,0-.07,0-.1.01-.08.02-.14.07-.19.13-.04.05.04.17.03.24q-.01.09-.06.18l.24.84c-.31.44-.25,1-.04,1.5-.06.15-.12.3-.15.46l-.15.2c-.2.35-.15.71-.15,1.11l-.03.21c-.01.31-.08.55.06.82.02.08.06.15.09.22-.11.19-.11.45-.01.64-.17.59-.2,1.26-.04,1.99-.02.02-.05.03-.07.05l-.1.12c-.06.1-.08.2-.08.31,0,.08.02.16.03.24-.06.1-.09.21-.07.33.04.31.07.63.11.94,0,.01-.02.02-.02.03-.06.1-.08.2-.08.31-.07.53-.09,1.06-.06,1.59,0,.06.01.11.03.16-.19.95-.24,1.92-.25,2.88,0,.64-.01,1.28-.02,1.92-.11.11-.19.26-.19.43,0,.73-.03,1.46-.12,2.18,0,.05,0,.1.02.15-.22.77-.35,1.55-.38,2.35,0,0,0,0,0,0-.21.11-.42.22-.64.31-.14.06-.27.11-.41.16-.12.04-.22.11-.3.2-.77.31-1.52.63-2.27.99,0,0-.02,0-.02,0-.2,0-.4.05-.58.12-.34.08-.67.15-1.01.2-.1.02-.21.09-.29.18-.8.2-1.59.4-2.39.61-.57.15-1.14.31-1.7.47-.49.14-1.02.25-1.41.57-2.51.39-5.04.7-7.57.94-.2.02-.35.12-.45.25-1.72-.09-3.45-.07-5.18.06-.06-.02-.12-.03-.19-.03-.92,0-1.84,0-2.77,0-.08,0-.16.02-.24.05-.08,0-.15-.02-.23-.02-.04,0-.08,0-.11.01-.03,0-.05-.01-.08-.02-.18-.06-.37-.07-.55-.05-.15-.04-.32-.07-.5-.07-.05,0-.09.01-.13.01-.17-.05-.34-.06-.5-.05-.04,0-.08-.01-.13-.02-.25-.08-.49-.09-.74-.03-.02,0-.03,0-.05,0-.07-.03-.14-.07-.23-.09-.07-.01-.13-.03-.2-.04-.14-.04-.28-.06-.42-.06-.02,0-.04-.02-.07-.03-.04-.01-.08-.03-.12-.04-.25-.08-.49-.09-.74-.03-.04,0-.07.01-.1.02-.11-.05-.21-.11-.33-.14-.12-.03-.24-.05-.36-.08-.18-.06-.36-.07-.54-.05-.06-.02-.12-.06-.18-.08-.07-.01-.13-.03-.2-.04-.15-.05-.31-.06-.46-.06-.01,0-.03-.01-.04-.02,0,0-.01,0-.02,0,0,0,0,0-.01,0-.08-.01-.19-.03-.25-.03-.04,0-.1-.01-.16-.02-.02,0-.04-.01-.07-.02-.25-.08-.49-.09-.74-.03-.08,0-.16.02-.24.04-.21-.09-.45-.16-.73-.16,0,0-.01,0-.02,0-.02,0-.03-.02-.05-.02-.11-.03-.22-.05-.32-.08,0,0-.01,0-.02,0-.06-.02-.12-.06-.18-.08-.05-.01-.11-.03-.16-.04-.06-.02-.12-.02-.19-.03-.03-.01-.06-.03-.1-.04-.05-.01-.11-.03-.16-.04-.09-.03-.17-.04-.26-.05-.2-.11-.4-.18-.63-.19-.04-.02-.08-.04-.13-.05-.08-.03-.16-.05-.24-.08-.09-.03-.18-.04-.26-.05-.01,0-.02-.01-.03-.02,0,0,0,0,0,0,0,0,0,0,0,0,0,0,0,0,0,0-.08-.05-.16-.09-.25-.12-.12-.06-.25-.1-.39-.13-.04-.01-.07-.04-.11-.05-.04-.01-.08-.03-.12-.04-.07-.02-.14-.03-.2-.04-.14-.08-.3-.14-.45-.17-.02,0-.03-.02-.05-.02-.21-.11-.44-.16-.69-.16l-.3-.07s0,0,0,0c-.03-.01-.05-.02-.08-.03-.05-.01-.1-.01-.14-.02-.03-.01-.06-.02-.1-.03-.81-.37-1.62-.74-2.43-1.11-.07-.03-.14-.06-.22-.07-.22-.21-.51-.36-.86-.42-.02-.02-.05-.04-.07-.05-.16-.08-.32-.16-.48-.24-.1-.05-.2-.09-.3-.12-.25-.26-.6-.45-1.05-.49-.18-.15-.35-.3-.5-.47-.04-.04-.08-.07-.14-.1-.1-.11-.21-.21-.34-.3,0-.03,0-.06.01-.09.02-.98.02-1.96,0-2.93,0-.15-.07-.3-.17-.42.02-.05.03-.11.03-.17.02-.68.04-1.35.06-2.03,0-.2-.11-.4-.27-.51.02-.76-.02-1.53-.12-2.3,0,0,0,0,0,0l.1-.12c.06-.1.08-.2.08-.31.04-.41.04-.81,0-1.22,0-.08-.01-.16-.05-.24,0,0,0,0,0-.02.08-.2.12-.43.1-.67-.08-.97-.15-1.94-.23-2.9-.02-.3-.11-.6-.25-.87.03-.07.05-.15.05-.23-.01-.44-.07-.88-.15-1.31,0-.04-.03-.08-.05-.12.26-.57.22-1.24-.14-1.78.06-.18.05-.38-.04-.55,0,0,0-.02,0-.02,0,0,.01-.02.02-.03.06-.1.08-.2.08-.31v-.02c0-.08-.01-.15-.04-.21.01-.15-.01-.3-.09-.43,0-.04.02-.07.03-.11.01-.05,0-.09,0-.14.02-.04.03-.08.04-.13.32-.34.18-1.06-.43-1.06-.18,0-.32.07-.42.17-.22.05-.37.2-.45.38-.04,0-.08-.01-.12-.01-.29,0-.47.16-.55.37-.41.04-.8.22-1.16.51.4-.32.06-.05-.02,0-.1.07-.2.13-.31.2-.09.05-.18.1-.27.15-.06.03-.42.25-.17.09.24-.15-.05.02-.12.04-.12.04-.23.08-.35.11-.24.07-.48.11-.72.15-.42.06-.87.47-1.09.82-.77.5-1.57.94-2.41,1.31-.14.07-.23.18-.28.32-.14.13-.28.26-.42.39-.05-.01-.1-.02-.16-.02-.39,0-.59.3-.59.6-.21.13-.42.26-.63.4-.42.22-.83.44-1.25.67-.33.21-.4.53-.32.81,0,0,0,.01-.01.02-.34.45-.49,1.03-.5,1.63-.1.07-.18.18-.22.34-.52,2.32-.84,4.67-.96,7.04,0,.01,0,.02,0,.03-.11.37-.15.74-.13,1.13,0,.02,0,.03,0,.05-.01.2-.03.4-.04.6,0,.05,0,.1.02.15-.17,1.54-.25,3.1-.37,4.63-.03.39.02.75.12,1.09-.04.06-.08.11-.1.18-.36,1.09-.21,2.3-.12,3.43.05.66.12,1.31.18,1.96-.12,1.5-.24,2.99-.36,4.49-.03.34.02.63.12.89-.02.04-.04.07-.05.11-.31.82-.59,1.65-.85,2.48,0,.02,0,.04-.01.06,0,.02-.01.03-.02.05-.02.01-.04.03-.05.04-.06.06-.1.12-.13.2-.04.07-.06.15-.05.24,0,.02,0,.05,0,.07-.34.53-.57,1.12-.68,1.74,0,0-.01.01-.02.02-.06.11-.11.22-.15.34-.03.07-.04.14-.06.21,0,.05-.01.11-.02.16,0,.02,0,.03,0,.05-.02.04-.04.07-.06.11-.08.14-.11.32-.06.47,0,0,0,0,0,.01-.07.19-.13.39-.18.58,0,.04,0,.08,0,.12-.02.03-.04.05-.06.08-.08.15-.11.31-.06.47,0,.03.01.05.02.08-.02.07-.04.15-.04.23-.02.1-.02.19,0,.29-.1.72-.17,1.45-.2,2.18-.05.08-.08.18-.08.3,0,.64-.02,1.28-.03,1.91-.02.15-.02.31,0,.46v.16c-.18.35-.06.86-.03,1.24,0,.08,0,.15.01.23-.01.05-.03.1-.03.15-.04.34-.02.69.07,1.02-.28.34-.55.53-1.03.52-.49.04-.64.58-.45.93-.04.2-.05.4-.03.61-.23,1.25-.27,2.43-.26,3.7,0,.37-.14.86.08,1.17-.07.18-.06.4.04.57-.22.88-.18,1.73-.13,2.61-.09.1-.15.24-.16.39l-.08,1.97c-.01.27-.01.65-.04.85-.05.33-.15.66-.13,1.01,0,.04,0,.07.02.11-.03.1-.05.2-.05.31.01.9.03,1.8.04,2.7-.24.19-.29.56-.15.83-.04.11-.07.23-.08.35-.28.35-.13,1.02.46,1.02,0,0,0,0,0,0,.16.11.36.17.6.17.2,0,.38-.05.52-.13.67-.1,1.37-.04,2.04-.03.76.01,1.53.03,2.29.05,1.53.04,3.05.08,4.58.14.21,0,.4-.06.57-.16.12.01.24.01.37,0,1.74-.25,3.56-.13,5.31-.13,1.81,0,3.62,0,5.42,0,0,0,0,0,0,0,.1.09.23.15.4.15.19,0,.34-.07.44-.19.06.03.12.06.2.08.7.14,1.42.11,2.14.11.72,0,1.45,0,2.17,0,1.45,0,2.9,0,4.34-.04.16,0,.29-.06.38-.14,1.94.03,3.89.05,5.83.07.04,0,.08,0,.11,0,.16.11.36.18.61.18,3.23,0,6.47-.08,9.7-.2.08.02.17.03.26.03.43-.02.83.18,1.26.17.14.06.3-.1.46-.11.46-.02.83.15,1.29.13.16,0,.28.06.43,0,.08,0,.39-.02.47-.02,1.34.36,2.62-.02,3.99-.1.71-.04,1.14.16,1.86.1.19.14.7-.04.95-.02.18.02.37.02.55.03.2.2.48.02.78,0,1.85-.14,3.67.06,5.52.22,1.76.15,3.53-.04,5.28-.26.14.07.3.12.47.12,1.18.05,2.37-.01,3.54-.08,1.21-.07,2.29,0,3.49,0,.08,0,.27.02.35,0,2.9.3,5.76.29,8.69.05.09,0,.22-.04.3-.05.18.22.44.17.81.21,1.11.11,1.28-1.03.93-1.69.17-.42.22-.91.15-1.45Z"/>
        </g>
      </g>
    </g>
  </g>
</svg>