<?xml version="1.0" encoding="UTF-8"?>
<svg id="Layer_2" data-name="Layer 2" xmlns="http://www.w3.org/2000/svg" viewBox="0 0 82 82">
  <defs>
    <style>
      .cls-1 {
        fill: #f2bb57;
        stroke: #be2132;
        stroke-miterlimit: 10;
        stroke-width: 2px;
      }

      .cls-2 {
        fill: #be2132;
        stroke-width: 0px;
      }
    </style>
  </defs>
  <g id="Layer_1-2" data-name="Layer 1">
    <rect class="cls-1" x="1" y="1" width="80" height="80" rx="18" ry="18"/>
    <g>
      <path class="cls-2" d="M42.34,44.65c.12-2.15,1.17-4.05,2.76-5.39,1.56-1.32,3.66-2.13,5.94-2.13s4.38.81,5.94,2.13c1.59,1.34,2.64,3.24,2.76,5.39.12,2.21-.77,4.26-2.33,5.78-1.59,1.55-3.85,2.52-6.38,2.52s-4.79-.97-6.38-2.52c-1.56-1.52-2.45-3.57-2.32-5.78Z"/>
      <path class="cls-2" d="M28.51,48.61c.01.84.28,2.48.69,3.75.85,2.7,2.28,5.2,4.28,7.41,2.05,2.27,4.57,4.09,7.49,5.38,3.06,1.36,6.38,2.05,9.83,2.04,3.38,0,6.73-.7,9.83-2.08,2.91-1.3,5.44-3.13,7.48-5.4,2-2.21,3.43-4.72,4.28-7.42.43-1.37.7-2.75.8-4.14.11-1.37.06-2.75-.13-4.11-.38-2.65-1.31-5.2-2.73-7.47-1.32-2.11-3-3.97-4.98-5.49h0s-20.14-15.47-20.14-15.47c-.02-.01-.03-.03-.05-.04-1.32-1.01-3.54-1.01-5,0-1.47,1.03-1.64,2.73-.33,3.8h0s8.4,6.84,8.4,6.84l-25.61.03h-.03c-2.12,0-4.15,1.39-4.55,3.15-.41,1.79,1.02,3.27,3.22,3.28h0s12.98-.02,12.98-.02l-23.16,17.78-.09.07c-2.18,1.67-2.89,4.45-1.51,6.22,1.4,1.79,4.37,1.79,6.57.01l12.64-10.34s-.18,1.4-.17,2.23ZM60.99,53.28c-2.6,2.65-6.25,4.16-10.2,4.17-3.95,0-7.6-1.48-10.2-4.13-1.23-1.24-2.18-2.72-2.78-4.36-.57-1.56-.79-3.22-.64-4.87.14-1.61.61-3.17,1.4-4.58.79-1.42,1.84-2.67,3.1-3.68,2.53-2.06,5.75-3.18,9.13-3.18,3.37,0,6.6,1.1,9.13,3.16,1.26,1.01,2.31,2.26,3.09,3.67.78,1.41,1.26,2.97,1.4,4.58.14,1.65-.08,3.31-.64,4.87-.6,1.64-1.55,3.13-2.78,4.37Z"/>
    </g>
  </g>
</svg>