<?xml version="1.0" encoding="utf-8"?>
<!-- Generator: Adobe Illustrator 24.0.2, SVG Export Plug-In . SVG Version: 6.00 Build 0)  -->
<svg version="1.1" id="Layer_2_1_" xmlns="http://www.w3.org/2000/svg" xmlns:xlink="http://www.w3.org/1999/xlink" x="0px" y="0px"
	 viewBox="0 0 282.1 203.2" style="enable-background:new 0 0 282.1 203.2;" xml:space="preserve">
<style type="text/css">
	.st0{fill:#E8BC68;stroke:#AE3238;stroke-width:4;stroke-linecap:round;stroke-linejoin:round;}
</style>
<path class="st0" d="M35.9,141.5C16.4,130.8,4.7,112.2,8,93.4c2.2-12.6,10.7-22.8,22.6-29.2c-0.3-3.8-0.2-7.6,0.5-11.4
	c4.8-27.5,35-45.2,67.5-39.6c6.5,1.1,12.7,3.2,18.3,5.9c12.9-11.1,32.1-16.5,52.2-13c20,3.5,36.2,15,44.6,29.8
	c3.5,0,7.1,0.3,10.6,0.9c30.1,5.3,50.7,31.1,46,57.8c-1,5.8-3.1,11.1-6.1,15.9c11,9.6,13.2,22.3,10.2,35
	c-5.1,21.6-19.5,36.7-43.5,32.8c-8.1,14.7-29.6,22.9-52.8,18.8c-13.6-2.4-25.2-8.5-33.1-16.5c-0.5,0-1.1,0.1-1.6,0.1
	c-10.2,10.4-28.4,15.6-47.9,12.2c-19-3.3-34.1-13.9-40.4-26.7c-27.3,14.9-48.6,1-48.6,1C15.4,162.2,27.7,154.1,35.9,141.5
	L35.9,141.5z"/>
</svg>
