<svg xmlns="http://www.w3.org/2000/svg" viewBox="0 0 1572.05 845.7"><defs><style>.cls-1{fill:#e8bc68;}.cls-1,.cls-2,.cls-3{stroke:#ae3238;}.cls-1,.cls-6,.cls-7{stroke-miterlimit:10;}.cls-1,.cls-2{stroke-width:6px;}.cls-2,.cls-3,.cls-5,.cls-6,.cls-7{fill:none;}.cls-2,.cls-3,.cls-5,.cls-6{stroke-linecap:round;}.cls-2,.cls-3,.cls-5{stroke-linejoin:round;}.cls-3{stroke-width:4.78px;}.cls-4{fill:#f9deaf;}.cls-5,.cls-6,.cls-7{stroke:#be2132;stroke-width:3px;}.cls-7{stroke-linecap:square;}</style></defs><title>Asset 4</title><g id="Layer_2" data-name="Layer 2"><g id="Layer_2-2" data-name="Layer 2"><rect class="cls-1" x="3" y="3" width="1566.05" height="839.7" rx="17"/><line class="cls-2" x1="3" y1="75.3" x2="1569.05" y2="75.3"/><line class="cls-3" x1="37.45" y1="55.07" x2="66.44" y2="26.07"/><line class="cls-3" x1="37.45" y1="26.07" x2="66.44" y2="55.07"/><line class="cls-3" x1="117.98" y1="55.07" x2="88.6" y2="55.07"/><rect class="cls-3" x="140.14" y="23.96" width="31.11" height="31.11"/><rect class="cls-4" x="252.49" y="241.65" width="1067.07" height="410.86"/><path class="cls-5" d="M147.7,206.74c19.22-42.94,33-52.36,42.58-51.54,15.25,1.31,17.19,28.51,47.06,44.53,19.35,10.39,31.54,6,35.28,14.71,6.73,15.76-22.85,53.57-42.87,47.27-15.57-4.9-28.32-32.14-18.73-44.68,5.86-7.66,20.74-10.53,30.89-3.61,7.19,4.91,14.25,16.28,9,25.25s-20.28,11.8-25.64,5.55-3-20.3,4.2-22.69c4.34-1.45,9.11,1.93,10.59,3.06"/><path class="cls-6" d="M68.82,267.93c19.51,4,39.35,4.11,58.85,8.1,26.64,5.46,53,14.78,79.6,20.24"/><path class="cls-6" d="M165.69,291c7.71,25.73-3.42,51.6-23.66,61.08-16,7.47-39.68,5.75-51.43-10.4-12.28-16.86-8-44.59,13.32-59.88"/><path class="cls-6" d="M131.78,289.91l-13,50.82"/><path class="cls-7" d="M1378,591.07c-15.47-10.19-86.54,50-76.44,74.66,7.91,19.31,68.32,23.24,80,1.78,12.64-23.24-32.58-75-48-69.33-18.27,6.73-8.66,99.19,7.11,101.33C1357.57,701.8,1394.67,602,1378,591.07Z"/><path class="cls-5" d="M1343.33,432c33.5,3.74,57.58,20.94,58.67,37.33,1.77,26.7-57.35,53.48-70.67,41.33-14.18-12.93,6.14-85.92,49.34-92,37.82-5.32,79.76,42.56,70.66,70.67-6.44,19.92-40.6,36.37-66.66,24-16.27-7.72-26.25-25.19-26.67-41.33-.9-34.62,42.3-56.28,66.67-62.67,1.74-.46,33.43-8.54,38.66,1.33,5,9.43-19.51,25-36,56-14.13,26.57-16.27,53-16,70.67"/><path class="cls-5" d="M174,600.19s-11.06,7.32-23.08,25c-11.5,16.95-23.67,56.11.38,56.5s45.91-28.2,45.91-28.2,15.45,14.1,14.67,14.87,16,75,26.68,79.56c4.74,2,7.15,2,9,.22a8.09,8.09,0,0,0,2.38-6.89l-5.56-47.41,3.36-1,8.42,45.48s1.19,6.79,8.95,6.52c4.05-.14,5.74-3.44,6.44-6.43a16.31,16.31,0,0,0,0-7.09l-8.77-41.58,43.42-24.45,9,54.18s1.56,3.72,6.65,2.35,5.47-5.48,5.47-5.48-.58-67.48-9.19-78S294.12,608,270.65,619s-37,16.62-37,16.62S198.87,590.8,174,600.19Z"/><path class="cls-5" d="M314.78,716.68s-3.84,10.25-8.53,6S292,673.32,292,673.32"/><circle class="cls-5" cx="369.11" cy="723.69" r="29.33"/><path class="cls-6" d="M288,616s38.88-9.42,41.55,44.8,0,33.51,0,33.51h-2.83"/><path class="cls-5" d="M247.21,629.68l-9.67-5.28v-5.33h-9.32l-4-9.78h-9.78V598.9l-33.9.07a13.3,13.3,0,0,0-1.55.11l-2.32.32"/><polyline class="cls-5" points="1292.96 144.85 1332.19 150.97 1320.32 186.37"/><polyline class="cls-5" points="1354.94 158.6 1343.08 194 1369.62 202.9"/><path class="cls-5" d="M1391.61,179.28,1426.44,191Z"/><path class="cls-5" d="M1382.26,207.14l9.35-27.86Z"/><line class="cls-5" x1="1417.1" y1="218.82" x2="1382.26" y2="207.14"/><polyline class="cls-5" points="1448.91 190.12 1479.25 200.29 1475.15 212.51 1444.82 202.34 1437.04 225.51 1472.44 237.38"/></g></g></svg>