<?xml version="1.0" encoding="UTF-8"?>
<svg id="Layer_2" data-name="Layer 2" xmlns="http://www.w3.org/2000/svg" viewBox="0 0 82 82">
  <defs>
    <style>
      .cls-1 {
        fill: #f2bb57;
        stroke-miterlimit: 10;
        stroke-width: 2px;
      }

      .cls-1, .cls-2 {
        stroke: #be2132;
      }

      .cls-3 {
        fill: #edaa3e;
      }

      .cls-3, .cls-4, .cls-5 {
        stroke-width: 0px;
      }

      .cls-4 {
        fill: #be2132;
      }

      .cls-5 {
        fill: #ad2337;
      }

      .cls-2 {
        fill: #edaa3d;
        stroke-linecap: round;
        stroke-linejoin: round;
      }
    </style>
  </defs>
  <g id="Layer_1-2" data-name="Layer 1">
    <rect class="cls-1" x="1" y="1" width="80" height="80" rx="18" ry="18"/>
    <path class="cls-2" d="M38.49,47.66c-.66-.11-1.32.02-1.89.36-2.63,1.61-10.08,6.71-9.6,12.47s5.34,8.01,8.5,8.01c3.91,0,6.6-3.67,7.58-5.27.27-.44.42-.94.42-1.46v-10.93c0-1.35-.98-2.51-2.31-2.73l-2.7-.45Z"/>
    <g>
      <path class="cls-4" d="M35.5,19c-4.67,0-8.5,3.82-8.5,8.5s3.83,8.5,8.5,8.5h8.5v-17h-8.5Z"/>
      <path class="cls-3" d="M35.5,36c-4.67,0-8.5,3.82-8.5,8.5s3.83,8.5,8.5,8.5h8.5v-17h-8.5Z"/>
      <path class="cls-5" d="M52.5,19h-8.5v17h8.5c4.67,0,8.5-3.83,8.5-8.5s-3.83-8.5-8.5-8.5Z"/>
    </g>
    <circle class="cls-2" cx="53" cy="45" r="8.5"/>
  </g>
</svg>