<?xml version="1.0" encoding="UTF-8"?>
<svg id="Layer_2" data-name="Layer 2" xmlns="http://www.w3.org/2000/svg" viewBox="0 0 82 82">
  <defs>
    <style>
      .cls-1 {
        fill: #f2bb57;
        stroke: #be2132;
        stroke-miterlimit: 10;
        stroke-width: 2px;
      }

      .cls-2 {
        fill: #be2233;
      }

      .cls-2, .cls-3, .cls-4 {
        stroke-width: 0px;
      }

      .cls-3 {
        fill: #a01f32;
      }

      .cls-4 {
        fill: #af233e;
      }
    </style>
  </defs>
  <g id="Layer_1-2" data-name="Layer 1">
    <rect class="cls-1" x="1" y="1" width="80" height="80" rx="18" ry="18"/>
    <g>
      <path class="cls-3" d="M15.67,52.1l1.99,1.99c.77.77,1.99.89,2.9.27l45.32-30.82c1.42-.97,1.31-3.09-.21-3.9l-10.24-5.46c-.86-.46-1.91-.32-2.62.34L15.74,48.81c-.95.88-.98,2.37-.06,3.29Z"/>
      <path class="cls-4" d="M15.72,30.06l1.99-1.99c.77-.77,1.99-.89,2.9-.27l45.32,30.82c1.42.97,1.31,3.09-.21,3.9l-10.24,5.46c-.86.46-1.91.32-2.62-.34L15.78,33.34c-.95-.88-.98-2.37-.06-3.29Z"/>
      <path class="cls-2" d="M55.34,13.79l10.41,5.86c.74.42,1.2,1.23,1.2,2.12l.04,38.48c0,.89-.46,1.7-1.2,2.12l-10.41,5.86c-1.52.85-3.35-.3-3.35-2.12l-.04-50.19c0-1.81,1.83-2.97,3.35-2.12Z"/>
    </g>
  </g>
</svg>